<?xml version="1.0" standalone="no"?>
<!DOCTYPE svg PUBLIC "-//W3C//DTD SVG 1.1//EN" "http://www.w3.org/Graphics/SVG/1.1/DTD/svg11.dtd" >
<svg xmlns="http://www.w3.org/2000/svg">
<metadata></metadata>
<defs>
<font id="px_groteskregular_italic" horiz-adv-x="1228" >
<font-face units-per-em="2048" ascent="1649" descent="-399" />
<missing-glyph horiz-adv-x="528" />
<glyph unicode="&#xfb01;" horiz-adv-x="1236" d="M1196 1208h-184l39 185h184zM756 0l186 887h-461l-188 -887h-182l188 887h-176l33 157h176l74 349h421l-32 -158h-240l-41 -191h647l-221 -1044h-184z" />
<glyph unicode="&#xfb02;" horiz-adv-x="1239" d="M514 1044h219l-33 -157h-219l-188 -887h-182l188 887h-176l33 157h176l74 349h829l-295 -1393h-184l260 1235h-461z" />
<glyph horiz-adv-x="0" />
<glyph unicode="&#xd;" horiz-adv-x="0" />
<glyph horiz-adv-x="0" />
<glyph horiz-adv-x="0" />
<glyph unicode=" "  horiz-adv-x="528" />
<glyph unicode="&#x09;" horiz-adv-x="528" />
<glyph unicode="&#xa0;" horiz-adv-x="528" />
<glyph unicode="!" horiz-adv-x="569" d="M270 0h-225l47 225h225zM182 365l25 305l153 723h185l-154 -723l-106 -305h-103z" />
<glyph unicode="&#x22;" horiz-adv-x="808" d="M745 887h-155v536h155v-536zM434 887h-155v536h155v-536z" />
<glyph unicode="#" horiz-adv-x="1257" d="M459 492h235l142 407h-236zM1044 344h-253l-121 -344h-154l121 344h-236l-120 -344h-154l121 344h-191l33 148h213l146 407h-228l31 145h248l125 349h153l-125 -349h236l125 349h153l-125 -349h201l-31 -145h-221l-145 -407h231z" />
<glyph unicode="$" horiz-adv-x="1198" d="M662 1255q-111 -6 -181.5 -66.5t-70.5 -158.5q0 -160 159 -211zM559 135q61 2 116.5 21.5t98.5 53.5t67.5 81t24.5 106q0 72 -44 125t-132 76l-31 8zM391 -16q-154 33 -243 142.5t-89 289.5h185q0 -223 182 -269l104 492l-59 16q-115 33 -181.5 127.5t-66.5 214.5 q0 88 34 165t96.5 133.5t150.5 90t194 37.5l35 164h135l-37 -174q141 -29 221.5 -127t80.5 -272h-185q0 100 -38 155.5t-115 75.5l-99 -463l82 -22q123 -35 200 -120t77 -214q0 -104 -39 -188t-108.5 -144.5t-167 -92.5t-216.5 -32l-35 -164h-135z" />
<glyph unicode="%" horiz-adv-x="1650" d="M1186 98q59 0 96 31t47 84l55 256q6 25 7 43q0 51 -35 78.5t-88 27.5q-59 0 -96 -30.5t-48 -83.5l-55 -256q-6 -25 -6 -43q0 -51 35 -79t88 -28zM1522 498q0 -96 -19.5 -188.5t-61.5 -164t-107.5 -116.5t-159.5 -45q-115 0 -178.5 62.5t-63.5 172.5q0 94 19.5 187.5 t61.5 165t107.5 116.5t159.5 45q115 0 178.5 -62t63.5 -173zM426 774q59 0 96 31t47 84l56 256q6 25 6 43q0 51 -35 78.5t-88 27.5q-59 0 -96 -30.5t-47 -83.5l-56 -256q-6 -25 -6 -43q0 -51 35 -79t88 -28zM762 1174q0 -96 -19.5 -188.5t-61.5 -164t-107.5 -117 t-159.5 -45.5q-115 0 -178.5 62.5t-63.5 173.5q0 94 19.5 187.5t61.5 165t107.5 116.5t159.5 45q115 0 178.5 -62t63.5 -173zM1343 1393h173l-1168 -1393h-172z" />
<glyph unicode="&#x26;" horiz-adv-x="1245" d="M596 874q41 27 85 58t81 65.5t60.5 71.5t23.5 78q0 63 -41 93t-103 30q-35 0 -68.5 -11.5t-60 -32t-43 -49t-16.5 -63.5q0 -66 20.5 -117t61.5 -123zM254 295q-2 -10 -3 -17.5t-1 -15.5q0 -68 54 -100.5t140 -32.5q92 0 167 27.5t139 91.5l-220 381l-145 -97 q-45 -29 -70.5 -55t-35.5 -71zM838 453l61 290h178l-110 -516l131 -227h-207l-64 109q-94 -74 -190 -104t-213 -30q-186 0 -275.5 81t-89.5 235q0 131 73 227t192 176l122 82q-53 92 -86.5 157.5t-33.5 145.5q0 76 30.5 139.5t84 109.5t125 70.5t151.5 24.5q68 0 125 -18.5 t100 -52t66.5 -81.5t23.5 -108q0 -72 -33.5 -134t-86 -116.5t-114 -100.5t-118.5 -83l154 -276h4z" />
<glyph unicode="'" horiz-adv-x="497" d="M434 887h-155v536h155v-536z" />
<glyph unicode="(" horiz-adv-x="645" d="M264 399q-16 -82 -16 -157q0 -147 30.5 -286.5t102.5 -303.5h-154q-70 154 -104.5 329t-34.5 361q0 305 129 597t385 527h174q-182 -184 -284.5 -337.5t-135.5 -301.5z" />
<glyph unicode=")" horiz-adv-x="647" d="M367 719q16 82 16 158q0 147 -30.5 286.5t-102.5 302.5h153q70 -154 105 -328.5t35 -361.5q0 -305 -129 -597t-385 -527h-174q182 184 284.5 337.5t134.5 301.5z" />
<glyph unicode="*" horiz-adv-x="917" d="M242 831l-43 84l256 132l-199 131l57 86l207 -138l55 267h103l-55 -260l241 124l43 -83l-258 -132l201 -133l-55 -86l-207 135l-58 -262h-102l55 258z" />
<glyph unicode="+" d="M76 449v147h444v448h156v-448h444v-147h-444v-449h-156v449h-444z" />
<glyph unicode="," horiz-adv-x="540" d="M258 0l-172 -225h-102l166 225h-117l47 225h225z" />
<glyph unicode="-" horiz-adv-x="886" d="M166 639h573l-37 -168h-573z" />
<glyph unicode="." horiz-adv-x="540" d="M258 0h-225l47 225h225z" />
<glyph unicode="/" horiz-adv-x="921" d="M137 0h-196l882 1393h197z" />
<glyph unicode="0" horiz-adv-x="1257" d="M731 1262q-121 0 -203 -73t-108 -194l-113 -528q-8 -41 -8 -82q0 -131 72.5 -192.5t195.5 -61.5q121 0 202 72.5t108 193.5l114 529q4 23 6 43t2 39q0 131 -72.5 192.5t-195.5 61.5zM129 416q0 184 34 364.5t108.5 323.5t192.5 231t288 88q201 0 309 -118.5t108 -327.5 q0 -184 -33.5 -364.5t-108.5 -324t-193.5 -231.5t-286.5 -88q-201 0 -309.5 119t-108.5 328z" />
<glyph unicode="1" horiz-adv-x="811" d="M532 1069h-358l39 162h354l35 162h184l-294 -1393h-187z" />
<glyph unicode="2" horiz-adv-x="1179" d="M301 162h668l-37 -162h-938l37 164l704 565q45 37 86 74t73 76t50.5 82t18.5 90q0 109 -68 160t-176 51q-123 0 -212 -68t-106 -211h-188q8 94 49 175t109.5 140.5t160 92t199.5 32.5q106 0 185 -28.5t131.5 -79.5t77 -119t24.5 -143q0 -74 -22.5 -136.5t-60.5 -114.5 t-87 -96t-100 -85l-578 -455v-4z" />
<glyph unicode="3" horiz-adv-x="1206" d="M412 633l34 162h295q150 0 179 123l28 122q2 10 3 19.5t1 19.5q0 49 -19.5 84t-52 56.5t-77.5 32t-94 10.5q-127 0 -203 -66t-92 -170h-189q8 84 48 156.5t105.5 126t155 84t195.5 30.5q92 0 170 -23.5t133 -67.5t87 -109.5t32 -149.5q0 -147 -73.5 -240.5t-186.5 -123.5 q78 -49 110.5 -120t32.5 -163q0 -104 -36.5 -188t-104.5 -143.5t-163 -92.5t-212 -33q-100 0 -184 28t-144.5 83t-94.5 136t-34 190h189q0 -141 83 -208t206 -67t190.5 53.5t85.5 139.5l31 139q6 25 6 43q0 61 -40 94t-101 33h-299z" />
<glyph unicode="4" horiz-adv-x="1175" d="M256 498h432l131 614zM584 0l69 336h-630l34 162l822 895h184l-191 -895h203l-37 -162h-200l-72 -336h-182z" />
<glyph unicode="5" horiz-adv-x="1189" d="M131 610l219 783h793l-35 -162h-619l-120 -432q66 74 147.5 105.5t177.5 31.5q170 0 267.5 -106.5t97.5 -292.5q0 -131 -37 -235.5t-107.5 -178.5t-171 -114t-227.5 -40q-98 0 -181 28t-144.5 81t-95.5 131t-34 176h189q0 -127 82 -190.5t205 -63.5q109 0 186.5 55.5 t99.5 155.5l39 182q4 14 4 22.5v20.5q0 100 -63.5 154.5t-171.5 54.5q-96 0 -170 -42t-137 -124h-193z" />
<glyph unicode="6" horiz-adv-x="1241" d="M573 131q117 0 202 59.5t108 167.5l22 115q6 27 6 53q0 109 -76.5 168.5t-199.5 59.5q-113 0 -200 -53.5t-109 -153.5l-23 -109q-4 -14 -4 -24.5v-20.5q0 -123 71.5 -192.5t202.5 -69.5zM565 -31q-209 0 -322.5 116t-113.5 333q0 121 14.5 242.5t46 233.5t80.5 208 t120 167.5t163 112.5t211 41q199 0 310.5 -95t111.5 -281h-189q-4 111 -65.5 163t-188.5 52q-139 0 -225 -89.5t-115 -238.5l-30 -154q70 66 148.5 100.5t185.5 34.5q186 0 292.5 -109.5t106.5 -295.5q0 -123 -44 -223.5t-119 -171t-173.5 -108.5t-204.5 -38z" />
<glyph unicode="7" horiz-adv-x="1071" d="M317 0h-219l836 1231h-725l35 162h936l-33 -160z" />
<glyph unicode="8" horiz-adv-x="1243" d="M557 131q117 0 197 46t98 128l25 107q4 12 4 23v22q0 47 -23.5 81.5t-63.5 57t-91.5 34t-108.5 11.5q-117 0 -197 -45t-98 -127l-25 -107q-4 -12 -4 -23v-22q0 -47 23.5 -82.5t63.5 -58t91.5 -34t108.5 -11.5zM694 795q100 0 169 46t85 117l21 91q2 10 3 19t1 19 q0 45 -19.5 78t-53.5 54.5t-79 32t-94 10.5q-100 0 -169 -46.5t-85 -117.5l-20 -90q-2 -10 -3 -19.5t-1 -19.5q0 -45 19 -78t53 -54.5t79 -31.5t94 -10zM543 -31q-219 0 -343 94.5t-124 280.5q0 145 88 251.5t246 149.5q-80 47 -118 116t-38 153q0 92 39 167.5t106.5 129 t156.5 83t189 29.5q88 0 166 -22.5t135.5 -65.5t91 -107.5t33.5 -148.5q0 -139 -77.5 -237.5t-202.5 -136.5q92 -57 138 -128t46 -167q0 -104 -41 -186.5t-113.5 -138.5t-169.5 -86t-208 -30z" />
<glyph unicode="9" horiz-adv-x="1243" d="M711 1262q-117 0 -202 -59.5t-108 -168.5l-22 -114q-6 -29 -6 -54q0 -109 76.5 -168t199.5 -59q113 0 200 53t109 154l23 108q4 14 4 24.5v20.5q0 123 -71.5 193t-202.5 70zM719 1423q209 0 322.5 -115.5t113.5 -332.5q0 -182 -32.5 -361.5t-107.5 -323t-197 -232.5 t-298 -89q-199 0 -310.5 95.5t-111.5 281.5h189q4 -111 65.5 -163t188.5 -52q139 0 225 89t115 239l30 153q-70 -66 -148.5 -100.5t-184.5 -34.5q-186 0 -293 109.5t-107 296.5q0 123 44 222t119 170t172 109.5t206 38.5z" />
<glyph unicode=":" horiz-adv-x="536" d="M428 819h-225l47 225h225zM254 0h-225l47 225h225z" />
<glyph unicode=";" horiz-adv-x="536" d="M254 0l-172 -225h-102l165 225h-116l47 225h225zM428 819h-225l47 225h225z" />
<glyph unicode="&#x3c;" d="M1081 885l-843 -363l843 -362v-160l-1044 449v147l1044 448v-159z" />
<glyph unicode="=" d="M74 238v147h1044v-147h-1044zM74 659v148h1044v-148h-1044z" />
<glyph unicode="&#x3e;" d="M113 1044l1044 -448v-147l-1044 -449v160l843 362l-843 363v159z" />
<glyph unicode="?" horiz-adv-x="1042" d="M479 0h-225l47 225h225zM864 1081q0 78 -60.5 131.5t-174.5 53.5q-117 0 -185.5 -65.5t-85.5 -174.5h-184q8 88 48 162t104.5 126t147.5 80.5t179 28.5q92 0 166 -26.5t126 -72.5t80 -105.5t28 -126.5q0 -72 -21.5 -128.5t-56.5 -103.5t-81 -87t-97 -79 q-53 -41 -95.5 -71.5t-73 -59t-51 -61.5t-28.5 -76l-14 -61h-185l12 61q12 57 34 102t55.5 85t78.5 76t105 77q45 31 87 63.5t73.5 70.5t50 82t18.5 99z" />
<glyph unicode="@" horiz-adv-x="1724" d="M492 158l155 729h553l-123 -572h185l155 729h-921l-222 -1044h738l-35 -158h-922l289 1360h1290l-221 -1044h-921zM709 315h184l88 414h-184z" />
<glyph unicode="A" horiz-adv-x="1310" d="M432 508h438l-77 659h-5zM891 340h-549l-184 -340h-217l772 1393h229l191 -1393h-199z" />
<glyph unicode="B" horiz-adv-x="1331" d="M969 473q2 10 3 19.5t1 19.5q0 66 -47 93.5t-125 27.5h-410l-96 -459h377q45 0 89 6t78.5 23.5t60.5 46.5t36 76zM985 719q98 -41 136 -111.5t38 -163.5q0 -115 -40 -198.5t-110.5 -138t-169 -81t-212.5 -26.5h-564l295 1393h533q180 0 278.5 -82t98.5 -230 q0 -66 -17.5 -125t-52.5 -107t-88 -82t-125 -48zM516 1219l-88 -412h408q92 0 141 36t61 95l25 119q4 12 4 23.5v21.5q0 66 -49 91.5t-115 25.5h-387z" />
<glyph unicode="C" horiz-adv-x="1304" d="M631 -31q-240 0 -370 133.5t-130 389.5q0 172 41 339.5t124 299t211 212t300 80.5q100 0 186 -27.5t147.5 -80.5t96.5 -131t35 -178h-195q0 123 -75.5 185t-206.5 62q-147 0 -249 -89t-134 -236l-86 -404q-6 -35 -7 -67q0 -70 24 -128.5t66 -100.5t99 -65.5t127 -23.5 q135 0 214 62.5t124 204.5h194q-66 -213 -192.5 -325t-343.5 -112z" />
<glyph unicode="D" horiz-adv-x="1368" d="M516 1219l-221 -1045h276q170 0 283 82t145 236l76 364q8 41 8 76q0 133 -86 210t-245 77h-236zM748 1393q256 0 391 -122t135 -358q0 -188 -40 -355t-126 -291t-223 -195.5t-330 -71.5h-492l295 1393h390z" />
<glyph unicode="E" horiz-adv-x="1234" d="M358 1393h924l-37 -174h-729l-90 -422h635l-37 -174h-635l-94 -449h729l-37 -174h-924z" />
<glyph unicode="F" horiz-adv-x="1144" d="M358 1393h854l-36 -174h-660l-90 -422h610l-37 -174h-610l-131 -623h-195z" />
<glyph unicode="G" horiz-adv-x="1372" d="M604 -31q-109 0 -195.5 35t-148 101.5t-95.5 164t-34 222.5q0 172 41 339.5t125 299t214 212t306 80.5q104 0 192.5 -27.5t151 -79.5t97 -131t34.5 -179h-194q0 127 -77 187t-216 60q-156 0 -259.5 -89t-133.5 -236l-86 -404q-6 -35 -7 -67q0 -70 24 -128.5t66 -100.5 t99 -65.5t127 -23.5q147 0 246.5 85t134.5 251l20 94h-315l37 174h510l-158 -743h-186l20 137q-63 -80 -151.5 -124t-188.5 -44z" />
<glyph unicode="H" horiz-adv-x="1427" d="M1049 629h-658l-133 -629h-195l295 1393h195l-125 -590h657l125 590h197l-295 -1393h-197z" />
<glyph unicode="I" horiz-adv-x="573" d="M358 1393h195l-295 -1393h-195z" />
<glyph unicode="J" horiz-adv-x="874" d="M559 0h-643l37 174h448l258 1219h195z" />
<glyph unicode="K" horiz-adv-x="1273" d="M258 0h-195l295 1393h195zM420 743l686 650h260l-719 -672l471 -721h-217z" />
<glyph unicode="L" horiz-adv-x="1040" d="M358 1393h195l-258 -1219h631l-37 -174h-826z" />
<glyph unicode="M" horiz-adv-x="1691" d="M494 1157l-246 -1157h-185l295 1393h299l117 -1088h8l572 1088h317l-295 -1393h-184l246 1157h-8l-621 -1157h-176l-131 1157h-8z" />
<glyph unicode="N" horiz-adv-x="1417" d="M954 244h9l243 1149h191l-295 -1393h-266l-330 1151h-8l-244 -1151h-191l295 1393h267z" />
<glyph unicode="O" horiz-adv-x="1447" d="M668 139q158 0 267 85t144 243l86 405q8 35 9 76q0 72 -28 129.5t-76 96t-111.5 59t-135.5 20.5q-78 0 -145.5 -22.5t-121.5 -64.5t-92 -103.5t-54 -136.5l-86 -406q-8 -35 -9 -74q0 -72 29 -128t77 -96t111.5 -61.5t135.5 -21.5zM1360 915q0 -188 -43 -359t-131 -302 t-221.5 -208t-313.5 -77q-248 0 -384 129t-136 377q0 188 42 360.5t129 302.5t220 207.5t314 77.5q248 0 386 -130t138 -378z" />
<glyph unicode="P" horiz-adv-x="1243" d="M774 705q197 0 225 139l43 196q6 25 7 47q0 63 -43 97.5t-113 34.5h-377l-108 -514h366zM371 530l-113 -530h-195l295 1393h516q168 0 267.5 -85t99.5 -251q0 -252 -135 -389.5t-385 -137.5h-350z" />
<glyph unicode="Q" horiz-adv-x="1462" d="M668 139q158 0 267 85t144 243l86 405q8 35 9 76q0 72 -28 129.5t-76 96t-111.5 59t-135.5 20.5q-78 0 -145.5 -22.5t-121.5 -64.5t-92 -103.5t-54 -136.5l-86 -406q-8 -35 -9 -74q0 -72 29 -128t77 -96t111.5 -61.5t135.5 -21.5zM1360 915q0 -104 -14.5 -207.5 t-44 -199.5t-72.5 -181t-101 -149l152 -178l-141 -115l-146 176q-72 -45 -156.5 -68.5t-185.5 -23.5q-248 0 -384 129t-136 377q0 188 42 360.5t129 302.5t220 207.5t314 77.5q248 0 386 -130t138 -378z" />
<glyph unicode="R" horiz-adv-x="1273" d="M784 754q197 0 226 139l32 149q6 25 7 48q0 61 -41 95t-115 34h-377l-98 -465h366zM381 580l-123 -580h-195l295 1393h516q172 0 269.5 -84t97.5 -238q0 -215 -116.5 -339t-315.5 -148l219 -584h-207l-203 580h-237z" />
<glyph unicode="S" horiz-adv-x="1259" d="M1008 1014q-2 123 -77 181t-235 58q-57 0 -107 -16t-87 -46t-58.5 -72t-21.5 -95q0 -29 7 -56.5t26.5 -52t53.5 -47t87 -39.5l219 -69q164 -53 234.5 -136t70.5 -198q0 -102 -44 -186t-119.5 -144.5t-178 -93.5t-221.5 -33q-104 0 -195.5 25.5t-161 81t-109.5 139.5 t-40 201h195q0 -74 26.5 -126t71.5 -86t105.5 -49.5t125.5 -15.5q70 0 132.5 17.5t109.5 51.5t75 83t28 110q0 23 -5.5 48.5t-24 50t-53 48t-92.5 40.5l-217 63q-86 25 -143 63t-93 85t-50.5 102t-14.5 115q0 88 38 163.5t104.5 129t157.5 84t198 30.5q221 0 349 -100 t128 -309h-194z" />
<glyph unicode="T" horiz-adv-x="1101" d="M207 1393h1026l-37 -174h-416l-258 -1219h-194l258 1219h-416z" />
<glyph unicode="U" horiz-adv-x="1400" d="M1198 1393h193l-199 -938q-25 -115 -70 -205t-115.5 -152.5t-167 -95.5t-223.5 -33q-102 0 -188 30t-147.5 87t-96 140t-34.5 190q0 63 16 141l176 836h195l-189 -883q-6 -27 -8 -48.5t-2 -43.5q0 -139 82 -209t221 -70q291 0 358 322z" />
<glyph unicode="V" horiz-adv-x="1277" d="M547 272h8l598 1121h217l-760 -1393h-211l-166 1393h197z" />
<glyph unicode="W" horiz-adv-x="1900" d="M977 1393h248l6 -1125h8l528 1125h215l-675 -1393h-246l-4 1120h-8l-482 -1120h-239l-86 1393h194l53 -1125h9z" />
<glyph unicode="X" horiz-adv-x="1212" d="M524 717l-276 676h211l200 -508l420 508h236l-582 -701l291 -692h-207l-217 526l-434 -526h-238z" />
<glyph unicode="Y" horiz-adv-x="1196" d="M201 1393h200l209 -648l484 648h225l-641 -840l-117 -553h-194l116 555z" />
<glyph unicode="Z" horiz-adv-x="1212" d="M1227 1219l-967 -1045h754l-37 -174h-997l36 174l969 1045h-727l37 174h969z" />
<glyph unicode="[" horiz-adv-x="708" d="M801 1466l-33 -151h-256l-322 -1512h252l-32 -151h-426l387 1814h430z" />
<glyph unicode="\" horiz-adv-x="899" d="M213 1393h172l344 -1393h-172z" />
<glyph unicode="]" horiz-adv-x="708" d="M709 1466l-387 -1814h-431l33 151h256l322 1512h-252l33 151h426z" />
<glyph unicode="^" d="M551 1393h156l423 -795h-172l-331 619l-326 -619h-174z" />
<glyph unicode="_" horiz-adv-x="1298" d="M4 -113h963v-123h-963v123z" />
<glyph unicode="`" horiz-adv-x="614" d="M387 1174h-151l-173 249h199z" />
<glyph unicode="a" horiz-adv-x="1206" d="M756 141q-59 -90 -140 -128t-167 -38q-164 0 -263.5 99.5t-99.5 290.5q0 106 27.5 230t88 229.5t157 175t231.5 69.5q106 0 191 -42t132 -140l33 157h184l-221 -1044h-184zM852 600q12 51 12 98q0 55 -21.5 97.5t-56 70t-82 42t-98.5 14.5q-102 0 -179 -65.5t-99 -172.5 l-64 -303q-6 -29 -6 -53q0 -86 61.5 -145.5t169.5 -59.5q119 0 207 75.5t117 215.5z" />
<glyph unicode="b" horiz-adv-x="1218" d="M45 0l295 1393h184l-104 -490q59 90 139 128t172 38q170 0 269.5 -95t99.5 -290q0 -131 -32 -258t-95.5 -227.5t-158.5 -162t-222 -61.5q-115 0 -204 58.5t-120 156.5l-39 -190h-184zM330 475q-12 -53 -13 -98q0 -68 22.5 -116t60.5 -78.5t85 -45t97 -14.5 q100 0 177 65.5t99 171.5l64 304q6 27 6 53q0 86 -60.5 145.5t-177.5 59.5q-125 0 -212 -76t-116 -215z" />
<glyph unicode="c" horiz-adv-x="1079" d="M805 713q0 115 -59.5 162t-157.5 47q-39 0 -79 -12.5t-75 -40t-62.5 -70.5t-39.5 -103l-68 -311q-6 -29 -6 -53q0 -104 64.5 -156.5t158.5 -52.5q104 0 167 59.5t95 167.5h185q-47 -180 -164 -277.5t-291 -97.5q-178 0 -281.5 95.5t-103.5 298.5q0 139 35 266t100.5 223 t161.5 153.5t217 57.5q186 0 285.5 -98.5t99.5 -268.5h-182v11z" />
<glyph unicode="d" horiz-adv-x="1218" d="M858 569q12 51 12 99q0 68 -22.5 115.5t-60 78.5t-85 45.5t-96.5 14.5q-100 0 -177 -65.5t-99 -172.5l-64 -303q-6 -29 -6 -53q0 -86 60.5 -145.5t177.5 -59.5q125 0 212 75.5t115 215.5zM1217 1393l-295 -1393h-185l31 141q-59 -90 -139 -128t-172 -38 q-170 0 -269.5 95.5t-99.5 289.5q0 131 32 258t95.5 227.5t158.5 162t222 61.5q115 0 204 -58.5t120 -156.5l112 539h185z" />
<glyph unicode="e" horiz-adv-x="1120" d="M317 618h512l9 37q6 31 6 58q0 104 -71 156.5t-171 52.5q-88 0 -166 -53.5t-102 -172.5zM90 389q0 131 35 254t102.5 218t166 151.5t224.5 56.5q98 0 173 -30.5t126.5 -84t77 -125t25.5 -153.5q0 -41 -6 -84t-27 -121h-702l-19 -86q-6 -29 -6 -53q0 -53 19.5 -92 t53.5 -64.5t77 -39t90 -13.5q98 0 165.5 58.5t100.5 150.5h184q-55 -172 -175 -264.5t-288 -92.5q-184 0 -290.5 99.5t-106.5 314.5z" />
<glyph unicode="f" horiz-adv-x="710" d="M514 1044h229l-32 -157h-230l-188 -887h-182l188 887h-176l33 157h176l74 349h432l-33 -158h-250z" />
<glyph unicode="g" horiz-adv-x="1218" d="M858 569q12 51 12 99q0 68 -22.5 115.5t-60 78.5t-85 45.5t-96.5 14.5q-100 0 -177 -65.5t-99 -172.5l-64 -303q-6 -29 -6 -53q0 -86 60.5 -145.5t177.5 -59.5q125 0 212 75.5t115 215.5zM922 0q-23 -109 -76 -184.5t-123 -123.5t-149.5 -69.5t-155.5 -21.5 q-90 0 -164 21.5t-128 63.5t-84 103t-30 139h185q0 -180 243 -180q45 0 92.5 15.5t89.5 49t73.5 87t47.5 129.5l25 112q-59 -90 -139 -128t-172 -38q-170 0 -269.5 94.5t-99.5 290.5q0 131 32 258t94 227.5t157.5 162t224.5 61.5q115 0 204 -58.5t120 -156.5l38 190h185z " />
<glyph unicode="h" horiz-adv-x="1169" d="M416 883q55 92 134 139t195 47q131 0 212 -77t81 -199q0 -29 -4 -55.5t-8 -49.5l-145 -688h-185l144 676q4 16 7 39.5t3 52.5q0 78 -40 116t-126 38q-66 0 -119 -26t-95 -69t-70.5 -99t-41.5 -118l-129 -610h-184l295 1393h184z" />
<glyph unicode="i" horiz-adv-x="526" d="M487 1200h-192l41 193h192zM45 0l221 1044h185l-222 -1044h-184z" />
<glyph unicode="j" horiz-adv-x="550" d="M512 1200h-193l41 193h193zM291 1044h184l-297 -1392h-426l35 158h242z" />
<glyph unicode="k" horiz-adv-x="1060" d="M229 0h-184l295 1393h184zM356 584l490 460h239l-526 -477l330 -567h-193z" />
<glyph unicode="l" horiz-adv-x="530" d="M47 0l295 1393h184l-295 -1393h-184z" />
<glyph unicode="m" horiz-adv-x="1738" d="M991 854q63 113 146.5 164t193.5 51q125 0 201 -77t76 -199q0 -29 -4.5 -55.5t-8.5 -49.5l-145 -688h-184l143 676q4 16 7 39.5t3 52.5q0 154 -145 154q-57 0 -106.5 -26t-89.5 -69t-68.5 -99t-40.5 -118l-129 -610h-185l144 676q4 16 7 39.5t3 52.5q0 154 -145 154 q-57 0 -106.5 -26t-89.5 -69t-68.5 -99t-41.5 -118l-129 -610h-184l221 1044h185l-35 -161q55 92 132 139t175 47q109 0 179.5 -58.5t88.5 -156.5z" />
<glyph unicode="n" horiz-adv-x="1169" d="M416 883q55 92 134 139t195 47q131 0 212 -77t81 -199q0 -29 -4 -55.5t-8 -49.5l-145 -688h-185l144 676q4 16 7 39.5t3 52.5q0 78 -40 116t-126 38q-66 0 -119 -26t-95 -69t-70.5 -99t-41.5 -118l-129 -610h-184l221 1044h185z" />
<glyph unicode="o" horiz-adv-x="1169" d="M872 664q6 31 7 47q0 111 -77 161t-188 50q-109 0 -184.5 -56.5t-97.5 -160.5l-68 -324q-6 -31 -6 -47q0 -111 77 -161t187 -50q109 0 184.5 56.5t98.5 160.5zM504 -25q-197 0 -306.5 101.5t-109.5 294.5q0 137 35 263t103.5 222t171 154.5t235.5 58.5 q197 0 306.5 -101.5t109.5 -293.5q0 -137 -35 -263t-103.5 -223.5t-171 -155t-235.5 -57.5z" />
<glyph unicode="p" horiz-adv-x="1220" d="M330 475q-12 -53 -13 -98q0 -68 22.5 -116t60.5 -78.5t85 -45t97 -14.5q100 0 177 65.5t99 171.5l64 304q6 27 6 53q0 86 -60.5 145.5t-177.5 59.5q-125 0 -212 -76t-116 -215zM-29 -348l295 1392h185l-31 -141q59 90 139 128t172 38q170 0 269.5 -95t99.5 -290 q0 -131 -32 -258t-95.5 -227.5t-158.5 -162t-222 -61.5q-115 0 -204 58.5t-120 156.5l-112 -538h-185z" />
<glyph unicode="q" horiz-adv-x="1218" d="M858 569q12 51 12 99q0 68 -22.5 115.5t-60 78.5t-85 45.5t-96.5 14.5q-100 0 -177 -65.5t-99 -172.5l-64 -303q-6 -29 -6 -53q0 -86 60.5 -145.5t177.5 -59.5q125 0 212 75.5t115 215.5zM958 1044h185l-295 -1392h-184l104 489q-59 -90 -139 -128t-172 -38 q-170 0 -269.5 94.5t-99.5 290.5q0 131 32 258t95.5 227.5t158.5 162t222 61.5q115 0 204 -58.5t120 -156.5z" />
<glyph unicode="r" horiz-adv-x="733" d="M266 1044h502l-35 -159h-317l-187 -885h-184z" />
<glyph unicode="s" horiz-adv-x="1046" d="M616 588q55 -16 104.5 -41t86.5 -57.5t58.5 -75.5t21.5 -97q0 -76 -34 -139t-93.5 -108t-141 -70t-176.5 -25q-86 0 -160.5 22.5t-130 65.5t-87 104.5t-31.5 139.5v33h184v-33q0 -49 22.5 -85t57.5 -57.5t79 -31.5t87 -10q49 0 92 12t75 35t51 53.5t19 65.5q0 53 -44 89 t-126 62l-143 45q-98 31 -159.5 96.5t-61.5 159.5q0 74 28.5 134.5t83 103.5t129 66.5t166.5 23.5q76 0 144.5 -19.5t119 -57.5t80 -94t29.5 -132v-33h-184v31q0 43 -17.5 73.5t-46 49t-65.5 27t-74 8.5q-92 0 -152.5 -39t-60.5 -113q0 -43 26.5 -79t86.5 -54z" />
<glyph unicode="t" horiz-adv-x="739" d="M324 154h239l-31 -154h-421l188 887h-176l33 157h176l74 349h182l-74 -349h240l-33 -157h-240z" />
<glyph unicode="u" horiz-adv-x="1159" d="M713 162q-55 -92 -133 -139.5t-193 -47.5q-63 0 -116.5 20.5t-91.5 57.5t-59.5 88.5t-21.5 112.5q0 29 4 55.5t9 48.5l145 686h184l-143 -675q-4 -16 -7 -40t-3 -53q0 -154 162 -153q63 0 116 26.5t94 69.5t70 99.5t41 117.5l129 608h184l-221 -1044h-184z" />
<glyph unicode="v" horiz-adv-x="1048" d="M436 223l438 821h207l-596 -1044h-184l-154 1044h193l88 -821h8z" />
<glyph unicode="w" horiz-adv-x="1533" d="M995 227l357 817h202l-491 -1044h-221l-25 836h-8l-356 -836h-226l-77 1044h188l35 -817h8l352 817h230l24 -817h8z" />
<glyph unicode="x" horiz-adv-x="1040" d="M403 553l-223 491h197l151 -354l303 354h222l-435 -497l250 -547h-194l-176 406l-348 -406h-224z" />
<glyph unicode="y" horiz-adv-x="1069" d="M451 227l446 817h205l-799 -1392h-373l35 158h244l106 190l-161 1044h192l96 -817h9z" />
<glyph unicode="z" horiz-adv-x="993" d="M797 158l-33 -158h-787l33 158l697 729h-521l33 157h746l-33 -157l-696 -729h561z" />
<glyph unicode="{" horiz-adv-x="786" d="M446 1466h431l-33 -151h-256l-144 -678h-174zM41 481l35 156h194l-34 -156h174l-144 -678h256l-33 -151h-430l177 829h-195z" />
<glyph unicode="|" horiz-adv-x="677" d="M272 1741h174v-2089h-174v2089z" />
<glyph unicode="}" horiz-adv-x="784" d="M322 -348h-431l33 151h256l144 678h174zM727 637l-35 -156h-194l34 156h-174l144 678h-256l33 151h430l-177 -829h195z" />
<glyph unicode="~" d="M1120 614q0 -113 -75.5 -184.5t-194.5 -71.5q-37 0 -67.5 6.5t-64.5 18.5t-73 30.5t-90 45.5q-47 25 -78 41t-54.5 26.5t-44 14.5t-44.5 4q-51 0 -79 -32t-28 -85h-153q0 113 75.5 184.5t194.5 71.5q37 0 67.5 -6t64.5 -18.5t73 -31t90 -44.5q45 -25 77 -41.5t55.5 -26.5 t44 -14t44.5 -4q51 0 79 31.5t28 84.5h153z" />
<glyph unicode="&#xa1;" horiz-adv-x="540" d="M252 1044h225l-47 -225h-225zM340 680l-25 -305l-153 -723h-185l154 723l107 305h102z" />
<glyph unicode="&#xa2;" d="M424 -10q-123 29 -192.5 121t-69.5 258q0 135 33.5 260t96 220t154 153.5t207.5 64.5l35 166h135l-37 -174q133 -29 204 -122t71 -235h-182v11q0 84 -33 131t-92 65l-166 -786q90 10 144 69.5t85 157.5h184q-47 -180 -161.5 -275t-282.5 -100l-35 -163h-135zM621 918 q-70 -10 -131.5 -63.5t-83.5 -158.5l-68 -311q-6 -29 -6 -53q0 -76 33.5 -123t91.5 -70z" />
<glyph unicode="&#xa3;" d="M25 162h184l104 485h-184l33 162h184l51 242q14 70 49 136t92.5 118.5t136.5 85t181 32.5q180 0 274.5 -86t94.5 -221q0 -51 -8 -92h-185q8 39 8 78q0 162 -206 162q-117 0 -173.5 -59.5t-78.5 -160.5l-52 -235h334l-33 -162h-333l-105 -485h613l-33 -162h-981z" />
<glyph unicode="&#xa4;" d="M299 598q0 -66 24.5 -124t67.5 -101t101.5 -67.5t123.5 -24.5q66 0 124.5 24.5t101.5 67.5t67.5 101t24.5 124t-24.5 124t-67.5 101t-101.5 67.5t-124.5 24.5t-124 -24.5t-101 -67.5t-67.5 -101t-24.5 -124zM231 324q-86 121 -86 274q0 78 24 146.5t64 125.5l-112 115 l110 111l113 -115q59 41 127 64.5t145 23.5q76 0 144.5 -23.5t128.5 -64.5l115 115l110 -111l-115 -115q41 -59 64.5 -127.5t23.5 -144.5q0 -78 -23.5 -145.5t-64.5 -126.5l115 -113l-110 -109l-113 111q-59 -41 -128 -64.5t-147 -23.5q-154 0 -274 86l-111 -111l-110 111z " />
<glyph unicode="&#xa5;" d="M139 475h348l25 121h-348l26 121h267l-193 676h193l174 -635l448 635h207l-483 -676h266l-27 -121h-346l-24 -121h346l-27 -121h-346l-74 -354h-184l74 354h-348z" />
<glyph unicode="&#xa6;" horiz-adv-x="698" d="M283 1743h174v-856h-174v856zM283 508h174v-856h-174v856z" />
<glyph unicode="&#xa7;" horiz-adv-x="1202" d="M338 293h461l98 461h-461zM119 133l268 1260h827l-34 -160h-643l-68 -320h645l-266 -1259h-832l33 160h647l68 319h-645z" />
<glyph unicode="&#xa8;" horiz-adv-x="614" d="M559 1212h-180l37 181h180zM199 1212h-181l37 181h181z" />
<glyph unicode="&#xa9;" horiz-adv-x="1718" d="M287 696q0 -125 46 -233.5t126 -188t188.5 -126t233.5 -46.5t233.5 46.5t188 126t126 188t46.5 233.5t-46.5 233.5t-126 188.5t-188 126t-233.5 46t-233.5 -46t-188.5 -126t-126 -188.5t-46 -233.5zM154 696q0 150 57 283t155.5 231.5t230.5 155.5t284 57 q150 0 282.5 -57t231 -155.5t156 -231.5t57.5 -283q0 -152 -57.5 -283.5t-156 -230t-231.5 -156t-282 -57.5q-152 0 -284 57.5t-230.5 156t-155.5 230t-57 283.5zM573 690q0 172 83 275.5t231 103.5q113 0 192.5 -62.5t89.5 -187.5h-135q-8 80 -52 109.5t-103 29.5 q-31 0 -59.5 -10t-51.5 -30.5t-37 -49t-14 -67.5v-209q0 -72 49 -115t115 -43q63 0 108 36t51 110h136q-8 -66 -36 -114t-68 -80t-90 -47t-101 -15q-76 0 -133.5 27.5t-96.5 76.5t-58.5 115.5t-19.5 146.5z" />
<glyph unicode="&#xaa;" horiz-adv-x="802" d="M768 1217l-117 -541h-137l14 59q-29 -35 -63.5 -53t-81.5 -18q-84 0 -136 51t-52 149q0 55 14 119t46 119t82 91t120 36q59 0 98 -26.5t55 -69.5l19 84h139zM575 965q4 14 4.5 27.5t0.5 23.5q0 63 -32 85.5t-73 22.5t-71.5 -26.5t-41.5 -73.5l-30 -145q-2 -8 -2 -15.5 v-13.5q0 -35 22.5 -58.5t67.5 -23.5q53 0 89 31.5t50 95.5z" />
<glyph unicode="&#xab;" horiz-adv-x="1005" d="M635 145l-143 422l284 340h164l-281 -370l119 -392h-143zM252 145l-143 422l284 340h164l-281 -370l119 -392h-143z" />
<glyph unicode="&#xac;" d="M969 659h-893v148h1044v-561h-151v413z" />
<glyph unicode="&#xad;" horiz-adv-x="886" d="M166 639h573l-37 -168h-573z" />
<glyph unicode="&#xae;" horiz-adv-x="1718" d="M287 696q0 -125 46 -233.5t126 -188t188.5 -126t233.5 -46.5t233.5 46.5t188 126t126 188t46.5 233.5t-46.5 233.5t-126 188.5t-188 126t-233.5 46t-233.5 -46t-188.5 -126t-126 -188.5t-46 -233.5zM948 711q39 0 57.5 23.5t18.5 56.5v69q0 76 -76 76h-194v-225h194z M754 604v-256h-133v696h319q106 0 163.5 -57t57.5 -164q0 -92 -44 -144t-107 -69l153 -262h-147l-144 256h-118zM154 696q0 150 57 283t155.5 231.5t230.5 155.5t284 57q150 0 282.5 -57t231 -155.5t156 -231.5t57.5 -283q0 -152 -57.5 -283.5t-156 -230t-231.5 -156 t-282 -57.5q-152 0 -284 57.5t-230.5 156t-155.5 230t-57 283.5z" />
<glyph unicode="&#xaf;" horiz-adv-x="614" d="M25 1372h591l-26 -121h-592z" />
<glyph unicode="&#xb0;" horiz-adv-x="813" d="M332 1137q0 -78 53 -131.5t131 -53.5t131 53.5t53 131.5t-53 131t-131 53t-131 -53t-53 -131zM229 1137q0 59 22.5 111t61.5 91t91.5 61.5t111.5 22.5t111.5 -22.5t91.5 -61.5t61.5 -91t22.5 -111t-22.5 -111.5t-61.5 -91.5t-91.5 -61.5t-111.5 -22.5t-111.5 22.5 t-91.5 61.5t-61.5 91.5t-22.5 111.5z" />
<glyph unicode="&#xb1;" d="M1096 0h-1045v147h1045v-147zM51 571v148h445v325h155v-325h445v-148h-445v-325h-155v325h-445z" />
<glyph unicode="&#xb2;" horiz-adv-x="821" d="M426 967h326l-23 -115h-536l26 119l367 266q47 35 77.5 69.5t30.5 79.5q0 41 -22.5 64t-75.5 23q-57 0 -95 -35t-46 -101h-142q4 53 28 99.5t62.5 79t91 51t113.5 18.5q104 0 167 -48t63 -144q0 -78 -43 -132.5t-99 -95.5l-270 -194v-4z" />
<glyph unicode="&#xb3;" horiz-adv-x="786" d="M416 1165l18 107h148q27 0 46 12t25 39l13 55q2 8 2 21q0 74 -105 74q-115 0 -129 -111h-141q10 100 88 161.5t194 61.5q104 0 170 -53t66 -139q0 -66 -44 -115t-108 -61q94 -45 95 -140q0 -111 -78 -176t-201 -65q-111 0 -185.5 61t-78.5 182h143q4 -72 37 -101.5 t92 -29.5q57 0 84 22.5t35 57.5l14 66q2 8 2 20q0 51 -55 51h-147z" />
<glyph unicode="&#xb4;" horiz-adv-x="614" d="M403 1423h215l-237 -249h-160z" />
<glyph unicode="&#xb5;" horiz-adv-x="1230" d="M180 -348h-184l297 1392h184l-143 -675q-4 -16 -7 -40t-3 -53q0 -154 161 -153q63 0 116.5 26.5t94.5 69.5t70 99.5t41 117.5l129 608h184l-221 -1044h-184l35 162q-55 -92 -135 -139.5t-185 -47.5q-53 0 -94 14.5t-72 53.5z" />
<glyph unicode="&#xb6;" horiz-adv-x="1273" d="M1229 1393l-336 -1577h-174l305 1429h-260l-305 -1429h-174l188 880h-348l147 697h957z" />
<glyph unicode="&#xb7;" horiz-adv-x="536" d="M342 412h-225l47 225h225z" />
<glyph unicode="&#xb8;" horiz-adv-x="1685" d="M625 -215h143l31 143h143l-59 -276h-287z" />
<glyph unicode="&#xb9;" horiz-adv-x="614" d="M506 852h-144l103 479h-227l22 115h227l27 123h143z" />
<glyph unicode="&#xba;" horiz-adv-x="768" d="M422 664q-104 0 -166.5 54t-62.5 150q0 72 19 137.5t57 114.5t93.5 79t126.5 30q104 0 167 -54.5t63 -150.5q0 -72 -19.5 -137.5t-57.5 -114.5t-93 -78.5t-127 -29.5zM580 1014q4 16 4 24q0 45 -29 65.5t-76 20.5q-96 0 -117 -88l-30 -157q-4 -16 -4 -25 q0 -45 28.5 -65.5t75.5 -20.5t77 23.5t40 66.5z" />
<glyph unicode="&#xbb;" horiz-adv-x="1003" d="M340 907l143 -422l-284 -340h-164l280 371l-118 391h143zM723 907l143 -422l-284 -340h-164l280 371l-118 391h143z" />
<glyph unicode="&#xbc;" horiz-adv-x="1552" d="M963 274h178l53 244h-4zM1083 0l33 160h-321l24 114l414 443h141l-94 -443h125l-25 -114h-125l-32 -160h-140zM1284 1393h172l-1167 -1393h-172zM469 676h-143l100 471h-227l22 115h228l28 131h144z" />
<glyph unicode="&#xbd;" horiz-adv-x="1591" d="M1284 1393h172l-1167 -1393h-172zM1075 115h316l-27 -115h-522l22 109l365 288q45 35 72.5 68t27.5 74q0 37 -27.5 59.5t-74.5 22.5q-55 0 -93 -30t-44 -89h-144q10 104 88 167.5t201 63.5q111 0 173 -52t62 -138q0 -76 -44 -130.5t-97 -95.5l-254 -198v-4zM469 676h-143 l100 471h-227l22 115h228l28 131h144z" />
<glyph unicode="&#xbe;" horiz-adv-x="1628" d="M1038 274h179l53 244h-4zM1159 0l33 160h-322l25 114l414 443h141l-94 -443h125l-25 -114h-125l-33 -160h-139zM1358 1393h172l-1168 -1393h-172zM354 987l25 115h141q35 0 50.5 10t21.5 37l12 51q0 6 1 11.5t1 9.5q0 41 -26.5 58t-71.5 17q-51 0 -85 -24.5t-42 -71.5 h-143q10 88 84.5 148.5t197.5 60.5q98 0 163 -48t65 -134q0 -66 -37 -117t-99 -68q82 -53 82 -147q0 -109 -75.5 -172.5t-208.5 -63.5q-111 0 -182.5 56.5t-73.5 173.5h143q0 -59 36 -88t87 -29q45 0 77.5 18.5t43.5 61.5l14 63q2 8 2 21q0 51 -59 51h-144z" />
<glyph unicode="&#xbf;" horiz-adv-x="1026" d="M522 1044h226l-48 -225h-225zM137 -37q0 -78 60.5 -131t175.5 -53q117 0 185.5 65.5t84.5 173.5h184q-8 -88 -48 -161.5t-104.5 -126t-148.5 -81t-178 -28.5q-92 0 -165.5 26.5t-126 73t-80 105.5t-27.5 127q0 72 20.5 128t56 103t82 87t97.5 79q53 39 95 71t72.5 60.5 t50 61t30.5 75.5l14 62h184l-12 -62q-12 -57 -33.5 -102t-55.5 -85t-80 -77t-103 -75q-47 -31 -88 -64t-73 -71t-50.5 -82t-18.5 -99z" />
<glyph unicode="&#xc0;" horiz-adv-x="1310" d="M1022 1528h-152l-172 250h199zM432 508h438l-77 659h-5zM891 340h-549l-184 -340h-217l772 1393h229l191 -1393h-199z" />
<glyph unicode="&#xc1;" horiz-adv-x="1310" d="M864 1772h215l-237 -250h-160zM432 508h438l-77 659h-5zM891 340h-549l-184 -340h-217l772 1393h229l191 -1393h-199z" />
<glyph unicode="&#xc2;" horiz-adv-x="1310" d="M719 1522h-158l223 250h170l158 -250h-147l-105 149zM432 508h438l-77 659h-5zM891 340h-549l-184 -340h-217l772 1393h229l191 -1393h-199z" />
<glyph unicode="&#xc3;" horiz-adv-x="1310" d="M1167 1741q-16 -92 -67 -143.5t-133 -51.5q-43 0 -81 15.5t-73 34t-65.5 34t-57.5 15.5q-70 0 -86 -78h-102q16 92 67.5 143t132.5 51q43 0 81 -15t73 -33.5t65.5 -34t57.5 -15.5q70 0 86 78h102zM432 508h438l-77 659h-5zM891 340h-549l-184 -340h-217l772 1393h229 l191 -1393h-199z" />
<glyph unicode="&#xc4;" horiz-adv-x="1310" d="M1122 1561h-180l37 180h180zM762 1561h-180l36 180h181zM432 508h438l-77 659h-5zM891 340h-549l-184 -340h-217l772 1393h229l191 -1393h-199z" />
<glyph unicode="&#xc5;" horiz-adv-x="1310" d="M954 1681q0 37 -24.5 64t-65.5 27t-66.5 -27t-25.5 -64t25.5 -64.5t66.5 -27.5t65.5 27.5t24.5 64.5zM1047 1681q0 -70 -48.5 -123t-134.5 -53t-134 53.5t-48 122.5q0 68 48 122.5t134 54.5t134.5 -54.5t48.5 -122.5zM432 508h438l-77 659h-5zM891 340h-549l-184 -340 h-217l772 1393h229l191 -1393h-199z" />
<glyph unicode="&#xc6;" horiz-adv-x="1949" d="M463 510h442l152 709h-99zM1997 1393l-37 -174h-709l-90 -422h615l-37 -174h-615l-94 -449h709l-37 -174h-903l71 342h-524l-240 -342h-227l983 1393h1135z" />
<glyph unicode="&#xc7;" horiz-adv-x="1304" d="M631 -31q-240 0 -370 133.5t-130 389.5q0 172 41 339.5t124 299t211 212t300 80.5q100 0 186 -27.5t147.5 -80.5t96.5 -131t35 -178h-195q0 123 -75.5 185t-206.5 62q-147 0 -249 -89t-134 -236l-86 -404q-6 -35 -7 -67q0 -70 24 -128.5t66 -100.5t99 -65.5t127 -23.5 q135 0 214 62.5t124 204.5h194q-66 -213 -192.5 -325t-343.5 -112zM326 -215h143l31 143h143l-59 -276h-287z" />
<glyph unicode="&#xc8;" horiz-adv-x="1234" d="M891 1522h-152l-172 250h199zM358 1393h924l-37 -174h-729l-90 -422h635l-37 -174h-635l-94 -449h729l-37 -174h-924z" />
<glyph unicode="&#xc9;" horiz-adv-x="1234" d="M909 1772h215l-237 -250h-160zM358 1393h924l-37 -174h-729l-90 -422h635l-37 -174h-635l-94 -449h729l-37 -174h-924z" />
<glyph unicode="&#xca;" horiz-adv-x="1234" d="M717 1522h-158l223 250h170l158 -250h-147l-105 149zM358 1393h924l-37 -174h-729l-90 -422h635l-37 -174h-635l-94 -449h729l-37 -174h-924z" />
<glyph unicode="&#xcb;" horiz-adv-x="1234" d="M1098 1561h-180l36 180h181zM737 1561h-180l37 180h180zM358 1393h924l-37 -174h-729l-90 -422h635l-37 -174h-635l-94 -449h729l-37 -174h-924z" />
<glyph unicode="&#xcc;" horiz-adv-x="573" d="M494 1522h-152l-172 250h199zM358 1393h195l-295 -1393h-195z" />
<glyph unicode="&#xcd;" horiz-adv-x="573" d="M524 1772h215l-237 -250h-160zM358 1393h195l-295 -1393h-195z" />
<glyph unicode="&#xce;" horiz-adv-x="573" d="M305 1522h-158l224 250h170l157 -250h-147l-105 149zM358 1393h195l-295 -1393h-195z" />
<glyph unicode="&#xcf;" horiz-adv-x="573" d="M717 1561h-180l36 180h181zM356 1561h-180l37 180h180zM358 1393h195l-295 -1393h-195z" />
<glyph unicode="&#xd0;" horiz-adv-x="1382" d="M209 623h-148l31 147h148l133 623h389q256 0 391 -122t135 -358q0 -188 -40 -355t-126 -291t-223 -195.5t-330 -71.5h-491zM403 623l-94 -449h277q170 0 282.5 82t145.5 236l76 364q8 41 8 76q0 133 -86 210t-246 77h-236l-96 -449h320l-31 -147h-320z" />
<glyph unicode="&#xd1;" horiz-adv-x="1417" d="M1266 1741q-16 -92 -67.5 -143.5t-133.5 -51.5q-43 0 -81 15.5t-72.5 34t-65.5 34t-58 15.5q-70 0 -86 -78h-102q16 92 67.5 143t133.5 51q43 0 81 -15t72.5 -33.5t65.5 -34t57 -15.5q70 0 86 78h103zM954 244h9l243 1149h191l-295 -1393h-266l-330 1151h-8l-244 -1151 h-191l295 1393h267z" />
<glyph unicode="&#xd2;" horiz-adv-x="1447" d="M938 1522h-152l-172 250h199zM668 139q158 0 267 85t144 243l86 405q8 35 9 76q0 72 -28 129.5t-76 96t-111.5 59t-135.5 20.5q-78 0 -145.5 -22.5t-121.5 -64.5t-92 -103.5t-54 -136.5l-86 -406q-8 -35 -9 -74q0 -72 29 -128t77 -96t111.5 -61.5t135.5 -21.5zM1360 915 q0 -188 -43 -359t-131 -302t-221.5 -208t-313.5 -77q-248 0 -384 129t-136 377q0 188 42 360.5t129 302.5t220 207.5t314 77.5q248 0 386 -130t138 -378z" />
<glyph unicode="&#xd3;" horiz-adv-x="1447" d="M979 1772h215l-238 -250h-159zM668 139q158 0 267 85t144 243l86 405q8 35 9 76q0 72 -28 129.5t-76 96t-111.5 59t-135.5 20.5q-78 0 -145.5 -22.5t-121.5 -64.5t-92 -103.5t-54 -136.5l-86 -406q-8 -35 -9 -74q0 -72 29 -128t77 -96t111.5 -61.5t135.5 -21.5zM1360 915 q0 -188 -43 -359t-131 -302t-221.5 -208t-313.5 -77q-248 0 -384 129t-136 377q0 188 42 360.5t129 302.5t220 207.5t314 77.5q248 0 386 -130t138 -378z" />
<glyph unicode="&#xd4;" horiz-adv-x="1447" d="M764 1522h-158l223 250h170l158 -250h-147l-105 149zM668 139q158 0 267 85t144 243l86 405q8 35 9 76q0 72 -28 129.5t-76 96t-111.5 59t-135.5 20.5q-78 0 -145.5 -22.5t-121.5 -64.5t-92 -103.5t-54 -136.5l-86 -406q-8 -35 -9 -74q0 -72 29 -128t77 -96t111.5 -61.5 t135.5 -21.5zM1360 915q0 -188 -43 -359t-131 -302t-221.5 -208t-313.5 -77q-248 0 -384 129t-136 377q0 188 42 360.5t129 302.5t220 207.5t314 77.5q248 0 386 -130t138 -378z" />
<glyph unicode="&#xd5;" horiz-adv-x="1447" d="M1272 1741q-16 -92 -67.5 -143.5t-133.5 -51.5q-43 0 -81 15.5t-72.5 34t-65.5 34t-57 15.5q-70 0 -86 -78h-103q16 92 67.5 143t133.5 51q43 0 81 -15t72.5 -33.5t65.5 -34t57 -15.5q70 0 86 78h103zM668 139q158 0 267 85t144 243l86 405q8 35 9 76q0 72 -28 129.5 t-76 96t-111.5 59t-135.5 20.5q-78 0 -145.5 -22.5t-121.5 -64.5t-92 -103.5t-54 -136.5l-86 -406q-8 -35 -9 -74q0 -72 29 -128t77 -96t111.5 -61.5t135.5 -21.5zM1360 915q0 -188 -43 -359t-131 -302t-221.5 -208t-313.5 -77q-248 0 -384 129t-136 377q0 188 42 360.5 t129 302.5t220 207.5t314 77.5q248 0 386 -130t138 -378z" />
<glyph unicode="&#xd6;" horiz-adv-x="1447" d="M1149 1561h-180l37 180h180zM788 1561h-180l37 180h180zM668 139q158 0 267 85t144 243l86 405q8 35 9 76q0 72 -28 129.5t-76 96t-111.5 59t-135.5 20.5q-78 0 -145.5 -22.5t-121.5 -64.5t-92 -103.5t-54 -136.5l-86 -406q-8 -35 -9 -74q0 -72 29 -128t77 -96 t111.5 -61.5t135.5 -21.5zM1360 915q0 -188 -43 -359t-131 -302t-221.5 -208t-313.5 -77q-248 0 -384 129t-136 377q0 188 42 360.5t129 302.5t220 207.5t314 77.5q248 0 386 -130t138 -378z" />
<glyph unicode="&#xd7;" d="M188 -2l-112 113l411 409l-411 412l112 112l410 -411l412 411l112 -112l-411 -412l411 -409l-110 -111l-412 412z" />
<glyph unicode="&#xd8;" horiz-adv-x="1447" d="M668 139q158 0 267 85t144 243l86 405q8 35 9 76q0 92 -50 164l-655 -924q86 -49 199 -49zM315 446q0 -109 64 -184l661 932q-90 59 -217 59q-78 0 -145.5 -22.5t-121.5 -64.5t-92 -103.5t-54 -136.5l-86 -406q-9 -35 -9 -74zM1360 915q0 -188 -43 -359t-131 -302 t-221.5 -208t-313.5 -77q-172 0 -293 64l-122 -172l-103 55l131 184q-133 129 -133 375q0 188 42 360.5t129 302.5t220 207.5t314 77.5q184 0 313 -75l131 184l104 -55l-145 -203q121 -134 121 -359z" />
<glyph unicode="&#xd9;" horiz-adv-x="1400" d="M956 1522h-151l-172 250h198zM1198 1393h193l-199 -938q-25 -115 -70 -205t-115.5 -152.5t-167 -95.5t-223.5 -33q-102 0 -188 30t-147.5 87t-96 140t-34.5 190q0 63 16 141l176 836h195l-189 -883q-6 -27 -8 -48.5t-2 -43.5q0 -139 82 -209t221 -70q291 0 358 322z" />
<glyph unicode="&#xda;" horiz-adv-x="1400" d="M950 1772h215l-237 -250h-160zM1198 1393h193l-199 -938q-25 -115 -70 -205t-115.5 -152.5t-167 -95.5t-223.5 -33q-102 0 -188 30t-147.5 87t-96 140t-34.5 190q0 63 16 141l176 836h195l-189 -883q-6 -27 -8 -48.5t-2 -43.5q0 -139 82 -209t221 -70q291 0 358 322z" />
<glyph unicode="&#xdb;" horiz-adv-x="1400" d="M758 1522h-158l223 250h170l158 -250h-147l-105 149zM1198 1393h193l-199 -938q-25 -115 -70 -205t-115.5 -152.5t-167 -95.5t-223.5 -33q-102 0 -188 30t-147.5 87t-96 140t-34.5 190q0 63 16 141l176 836h195l-189 -883q-6 -27 -8 -48.5t-2 -43.5q0 -139 82 -209 t221 -70q291 0 358 322z" />
<glyph unicode="&#xdc;" horiz-adv-x="1400" d="M1153 1561h-180l37 180h180zM793 1561h-181l37 180h180zM1198 1393h193l-199 -938q-25 -115 -70 -205t-115.5 -152.5t-167 -95.5t-223.5 -33q-102 0 -188 30t-147.5 87t-96 140t-34.5 190q0 63 16 141l176 836h195l-189 -883q-6 -27 -8 -48.5t-2 -43.5q0 -139 82 -209 t221 -70q291 0 358 322z" />
<glyph unicode="&#xdd;" horiz-adv-x="1196" d="M905 1772h215l-237 -250h-160zM201 1393h200l209 -648l484 648h225l-641 -840l-117 -553h-194l116 555z" />
<glyph unicode="&#xde;" horiz-adv-x="1253" d="M358 1393h199l-55 -260h317q168 0 267.5 -85t99.5 -251q0 -252 -135.5 -389.5t-384.5 -137.5h-351l-57 -270h-195zM719 444q197 0 225 140l43 196q6 25 6 47q0 63 -43 97t-112 34h-377l-109 -514h367z" />
<glyph unicode="&#xdf;" horiz-adv-x="1142" d="M420 129h14q129 0 218 44t110 138l41 199q6 25 6 45q0 45 -26.5 72.5t-88.5 27.5h-162l33 158h142q76 0 116.5 40t55.5 103l28 136q2 10 3 17t1 15q0 66 -46 104t-150 38q-98 0 -167 -43t-93 -158l-226 -1065h-184l225 1065q14 72 53 137.5t98.5 114.5t139.5 77.5 t176 28.5q88 0 156 -23.5t113 -66.5t68.5 -101t23.5 -128q0 -147 -68.5 -235.5t-189.5 -135.5q72 -41 107.5 -101.5t35.5 -170.5q0 -115 -42 -205t-119 -154.5t-183.5 -98.5t-232.5 -34h-21z" />
<glyph unicode="&#xe0;" horiz-adv-x="1206" d="M723 1174h-152l-172 249h199zM756 141q-59 -90 -140 -128t-167 -38q-164 0 -263.5 99.5t-99.5 290.5q0 106 27.5 230t88 229.5t157 175t231.5 69.5q106 0 191 -42t132 -140l33 157h184l-221 -1044h-184zM852 600q12 51 12 98q0 55 -21.5 97.5t-56 70t-82 42t-98.5 14.5 q-102 0 -179 -65.5t-99 -172.5l-64 -303q-6 -29 -6 -53q0 -86 61.5 -145.5t169.5 -59.5q119 0 207 75.5t117 215.5z" />
<glyph unicode="&#xe1;" horiz-adv-x="1206" d="M750 1423h215l-238 -249h-160zM756 141q-59 -90 -140 -128t-167 -38q-164 0 -263.5 99.5t-99.5 290.5q0 106 27.5 230t88 229.5t157 175t231.5 69.5q106 0 191 -42t132 -140l33 157h184l-221 -1044h-184zM852 600q12 51 12 98q0 55 -21.5 97.5t-56 70t-82 42t-98.5 14.5 q-102 0 -179 -65.5t-99 -172.5l-64 -303q-6 -29 -6 -53q0 -86 61.5 -145.5t169.5 -59.5q119 0 207 75.5t117 215.5z" />
<glyph unicode="&#xe2;" horiz-adv-x="1206" d="M569 1174h-157l223 249h170l158 -249h-148l-104 149zM756 141q-59 -90 -140 -128t-167 -38q-164 0 -263.5 99.5t-99.5 290.5q0 106 27.5 230t88 229.5t157 175t231.5 69.5q106 0 191 -42t132 -140l33 157h184l-221 -1044h-184zM852 600q12 51 12 98q0 55 -21.5 97.5 t-56 70t-82 42t-98.5 14.5q-102 0 -179 -65.5t-99 -172.5l-64 -303q-6 -29 -6 -53q0 -86 61.5 -145.5t169.5 -59.5q119 0 207 75.5t117 215.5z" />
<glyph unicode="&#xe3;" horiz-adv-x="1206" d="M1049 1393q-16 -92 -67.5 -143.5t-133.5 -51.5q-43 0 -81 15.5t-73 34t-65.5 33.5t-57.5 15q-70 0 -86 -77h-102q16 92 67.5 143t133.5 51q43 0 80.5 -15.5t72.5 -33.5t66 -33.5t57 -15.5q70 0 86 78h103zM756 141q-59 -90 -140 -128t-167 -38q-164 0 -263.5 99.5 t-99.5 290.5q0 106 27.5 230t88 229.5t157 175t231.5 69.5q106 0 191 -42t132 -140l33 157h184l-221 -1044h-184zM852 600q12 51 12 98q0 55 -21.5 97.5t-56 70t-82 42t-98.5 14.5q-102 0 -179 -65.5t-99 -172.5l-64 -303q-6 -29 -6 -53q0 -86 61.5 -145.5t169.5 -59.5 q119 0 207 75.5t117 215.5z" />
<glyph unicode="&#xe4;" horiz-adv-x="1206" d="M928 1212h-180l36 181h181zM567 1212h-180l37 181h180zM756 141q-59 -90 -140 -128t-167 -38q-164 0 -263.5 99.5t-99.5 290.5q0 106 27.5 230t88 229.5t157 175t231.5 69.5q106 0 191 -42t132 -140l33 157h184l-221 -1044h-184zM852 600q12 51 12 98q0 55 -21.5 97.5 t-56 70t-82 42t-98.5 14.5q-102 0 -179 -65.5t-99 -172.5l-64 -303q-6 -29 -6 -53q0 -86 61.5 -145.5t169.5 -59.5q119 0 207 75.5t117 215.5z" />
<glyph unicode="&#xe5;" horiz-adv-x="1206" d="M762 1333q0 37 -24.5 63.5t-65.5 26.5t-66.5 -26.5t-25.5 -63.5t25.5 -64.5t66.5 -27.5t65.5 27.5t24.5 64.5zM854 1333q0 -70 -48 -123t-134 -53t-134.5 53.5t-48.5 122.5q0 68 48.5 122t134.5 54t134 -54t48 -122zM756 141q-59 -90 -140 -128t-167 -38 q-164 0 -263.5 99.5t-99.5 290.5q0 106 27.5 230t88 229.5t157 175t231.5 69.5q106 0 191 -42t132 -140l33 157h184l-221 -1044h-184zM852 600q12 51 12 98q0 55 -21.5 97.5t-56 70t-82 42t-98.5 14.5q-102 0 -179 -65.5t-99 -172.5l-64 -303q-6 -29 -6 -53 q0 -86 61.5 -145.5t169.5 -59.5q119 0 207 75.5t117 215.5z" />
<glyph unicode="&#xe6;" horiz-adv-x="1742" d="M735 471h-366q-43 0 -68 -22.5t-33 -59.5l-26 -127q-2 -10 -3 -18t-1 -17q0 -104 155 -104q125 0 211 68.5t119 222.5zM774 156q-74 -90 -176 -135.5t-225 -45.5q-70 0 -130.5 17.5t-105.5 52.5t-71.5 86t-26.5 121q0 76 24.5 143.5t71.5 116.5t112.5 77.5t149.5 28.5 h375l16 76q8 33 9 68q0 49 -17.5 79.5t-45 48t-64.5 25t-76 7.5q-98 0 -155.5 -44t-78.5 -145h-184q12 74 49 135.5t93.5 106.5t130 69.5t157.5 24.5q221 0 316 -137h4q63 66 143 101.5t180 35.5q94 0 167 -30.5t123 -84t75.5 -125t25.5 -153.5q0 -41 -6 -84t-26 -121h-682 l-19 -86q-6 -29 -6 -53q0 -53 19.5 -92t52.5 -64.5t73.5 -39t83.5 -13.5q92 0 158 58.5t98 150.5h185q-55 -168 -174 -262.5t-279 -94.5q-111 0 -201 44t-139 137h-4zM958 618h492l8 37q6 31 6 58q0 51 -18.5 91t-51 65.5t-74.5 39t-87 13.5q-41 0 -81 -12.5t-76 -40 t-62.5 -70.5t-38.5 -103z" />
<glyph unicode="&#xe7;" horiz-adv-x="1079" d="M805 713q0 115 -59.5 162t-157.5 47q-39 0 -79 -12.5t-75 -40t-62.5 -70.5t-39.5 -103l-68 -311q-6 -29 -6 -53q0 -104 64.5 -156.5t158.5 -52.5q104 0 167 59.5t95 167.5h185q-47 -180 -164 -277.5t-291 -97.5q-178 0 -281.5 95.5t-103.5 298.5q0 139 35 266t100.5 223 t161.5 153.5t217 57.5q186 0 285.5 -98.5t99.5 -268.5h-182v11zM197 -215h143l31 143h143l-59 -276h-287z" />
<glyph unicode="&#xe8;" horiz-adv-x="1120" d="M723 1174h-152l-172 249h199zM317 618h512l9 37q6 31 6 58q0 104 -71 156.5t-171 52.5q-88 0 -166 -53.5t-102 -172.5zM90 389q0 131 35 254t102.5 218t166 151.5t224.5 56.5q98 0 173 -30.5t126.5 -84t77 -125t25.5 -153.5q0 -41 -6 -84t-27 -121h-702l-19 -86 q-6 -29 -6 -53q0 -53 19.5 -92t53.5 -64.5t77 -39t90 -13.5q98 0 165.5 58.5t100.5 150.5h184q-55 -172 -175 -264.5t-288 -92.5q-184 0 -290.5 99.5t-106.5 314.5z" />
<glyph unicode="&#xe9;" horiz-adv-x="1120" d="M735 1423h215l-237 -249h-160zM317 618h512l9 37q6 31 6 58q0 104 -71 156.5t-171 52.5q-88 0 -166 -53.5t-102 -172.5zM90 389q0 131 35 254t102.5 218t166 151.5t224.5 56.5q98 0 173 -30.5t126.5 -84t77 -125t25.5 -153.5q0 -41 -6 -84t-27 -121h-702l-19 -86 q-6 -29 -6 -53q0 -53 19.5 -92t53.5 -64.5t77 -39t90 -13.5q98 0 165.5 58.5t100.5 150.5h184q-55 -172 -175 -264.5t-288 -92.5q-184 0 -290.5 99.5t-106.5 314.5z" />
<glyph unicode="&#xea;" horiz-adv-x="1120" d="M555 1174h-158l224 249h170l157 -249h-147l-105 149zM317 618h512l9 37q6 31 6 58q0 104 -71 156.5t-171 52.5q-88 0 -166 -53.5t-102 -172.5zM90 389q0 131 35 254t102.5 218t166 151.5t224.5 56.5q98 0 173 -30.5t126.5 -84t77 -125t25.5 -153.5q0 -41 -6 -84t-27 -121 h-702l-19 -86q-6 -29 -6 -53q0 -53 19.5 -92t53.5 -64.5t77 -39t90 -13.5q98 0 165.5 58.5t100.5 150.5h184q-55 -172 -175 -264.5t-288 -92.5q-184 0 -290.5 99.5t-106.5 314.5z" />
<glyph unicode="&#xeb;" horiz-adv-x="1120" d="M918 1212h-181l37 181h180zM557 1212h-180l37 181h180zM317 618h512l9 37q6 31 6 58q0 104 -71 156.5t-171 52.5q-88 0 -166 -53.5t-102 -172.5zM90 389q0 131 35 254t102.5 218t166 151.5t224.5 56.5q98 0 173 -30.5t126.5 -84t77 -125t25.5 -153.5q0 -41 -6 -84 t-27 -121h-702l-19 -86q-6 -29 -6 -53q0 -53 19.5 -92t53.5 -64.5t77 -39t90 -13.5q98 0 165.5 58.5t100.5 150.5h184q-55 -172 -175 -264.5t-288 -92.5q-184 0 -290.5 99.5t-106.5 314.5z" />
<glyph unicode="&#xec;" horiz-adv-x="526" d="M442 1174h-151l-172 249h198zM45 0l221 1044h185l-222 -1044h-184z" />
<glyph unicode="&#xed;" horiz-adv-x="526" d="M485 1423h215l-237 -249h-160zM45 0l221 1044h185l-222 -1044h-184z" />
<glyph unicode="&#xee;" horiz-adv-x="526" d="M268 1174h-157l223 249h170l158 -249h-148l-104 149zM45 0l221 1044h185l-222 -1044h-184z" />
<glyph unicode="&#xef;" horiz-adv-x="526" d="M657 1212h-180l37 181h180zM297 1212h-180l37 181h180zM45 0l221 1044h185l-222 -1044h-184z" />
<glyph unicode="&#xf0;" horiz-adv-x="1171" d="M692 1112h-274l26 123h193l-68 158h199l68 -158h276l-27 -123h-192l74 -164q29 -63 54.5 -140t25.5 -173q0 -127 -35 -246t-104.5 -211t-171 -147.5t-234.5 -55.5q-201 0 -308.5 106.5t-107.5 307.5q0 119 36 227.5t102.5 190.5t160.5 131t209 49q39 0 84 -7t80 -24z M854 582q6 25 6 47q0 111 -76.5 161t-187.5 50q-109 0 -184.5 -56.5t-98.5 -160.5l-51 -242q-6 -25 -6 -47q0 -111 77 -161t187 -50q109 0 184.5 56.5t98.5 160.5z" />
<glyph unicode="&#xf1;" horiz-adv-x="1169" d="M1098 1393q-16 -92 -67.5 -143.5t-133.5 -51.5q-43 0 -81 15.5t-72.5 34t-65.5 33.5t-57 15q-70 0 -86 -77h-103q16 92 67.5 143t133.5 51q43 0 81 -15.5t72.5 -33.5t65.5 -33.5t57 -15.5q70 0 86 78h103zM416 883q55 92 134 139t195 47q131 0 212 -77t81 -199 q0 -29 -4 -55.5t-8 -49.5l-145 -688h-185l144 676q4 16 7 39.5t3 52.5q0 78 -40 116t-126 38q-66 0 -119 -26t-95 -69t-70.5 -99t-41.5 -118l-129 -610h-184l221 1044h185z" />
<glyph unicode="&#xf2;" horiz-adv-x="1169" d="M750 1174h-152l-172 249h199zM872 664q6 31 7 47q0 111 -77 161t-188 50q-109 0 -184.5 -56.5t-97.5 -160.5l-68 -324q-6 -31 -6 -47q0 -111 77 -161t187 -50q109 0 184.5 56.5t98.5 160.5zM504 -25q-197 0 -306.5 101.5t-109.5 294.5q0 137 35 263t103.5 222t171 154.5 t235.5 58.5q197 0 306.5 -101.5t109.5 -293.5q0 -137 -35 -263t-103.5 -223.5t-171 -155t-235.5 -57.5z" />
<glyph unicode="&#xf3;" horiz-adv-x="1169" d="M768 1423h215l-238 -249h-159zM872 664q6 31 7 47q0 111 -77 161t-188 50q-109 0 -184.5 -56.5t-97.5 -160.5l-68 -324q-6 -31 -6 -47q0 -111 77 -161t187 -50q109 0 184.5 56.5t98.5 160.5zM504 -25q-197 0 -306.5 101.5t-109.5 294.5q0 137 35 263t103.5 222t171 154.5 t235.5 58.5q197 0 306.5 -101.5t109.5 -293.5q0 -137 -35 -263t-103.5 -223.5t-171 -155t-235.5 -57.5z" />
<glyph unicode="&#xf4;" horiz-adv-x="1169" d="M559 1174h-158l224 249h170l157 -249h-147l-105 149zM872 664q6 31 7 47q0 111 -77 161t-188 50q-109 0 -184.5 -56.5t-97.5 -160.5l-68 -324q-6 -31 -6 -47q0 -111 77 -161t187 -50q109 0 184.5 56.5t98.5 160.5zM504 -25q-197 0 -306.5 101.5t-109.5 294.5 q0 137 35 263t103.5 222t171 154.5t235.5 58.5q197 0 306.5 -101.5t109.5 -293.5q0 -137 -35 -263t-103.5 -223.5t-171 -155t-235.5 -57.5z" />
<glyph unicode="&#xf5;" horiz-adv-x="1169" d="M1049 1393q-16 -92 -67.5 -143.5t-133.5 -51.5q-43 0 -81 15.5t-73 34t-65.5 33.5t-57.5 15q-70 0 -86 -77h-102q16 92 67.5 143t133.5 51q43 0 80.5 -15.5t72.5 -33.5t66 -33.5t57 -15.5q70 0 86 78h103zM872 664q6 31 7 47q0 111 -77 161t-188 50q-109 0 -184.5 -56.5 t-97.5 -160.5l-68 -324q-6 -31 -6 -47q0 -111 77 -161t187 -50q109 0 184.5 56.5t98.5 160.5zM504 -25q-197 0 -306.5 101.5t-109.5 294.5q0 137 35 263t103.5 222t171 154.5t235.5 58.5q197 0 306.5 -101.5t109.5 -293.5q0 -137 -35 -263t-103.5 -223.5t-171 -155 t-235.5 -57.5z" />
<glyph unicode="&#xf6;" horiz-adv-x="1169" d="M965 1212h-181l37 181h180zM604 1212h-180l37 181h180zM872 664q6 31 7 47q0 111 -77 161t-188 50q-109 0 -184.5 -56.5t-97.5 -160.5l-68 -324q-6 -31 -6 -47q0 -111 77 -161t187 -50q109 0 184.5 56.5t98.5 160.5zM504 -25q-197 0 -306.5 101.5t-109.5 294.5 q0 137 35 263t103.5 222t171 154.5t235.5 58.5q197 0 306.5 -101.5t109.5 -293.5q0 -137 -35 -263t-103.5 -223.5t-171 -155t-235.5 -57.5z" />
<glyph unicode="&#xf7;" d="M702 834h-208v210h208v-210zM702 0h-208v211h208v-211zM1120 449h-1044v147h1044v-147z" />
<glyph unicode="&#xf8;" horiz-adv-x="1167" d="M758 895q-59 27 -144 27q-109 0 -184.5 -56.5t-97.5 -160.5l-68 -324q-6 -31 -6 -47q0 -66 29 -111zM965 1190l102 -55l-123 -177q104 -100 105 -284q0 -135 -35 -262t-103.5 -223.5t-171 -155t-235.5 -58.5q-131 0 -219 43l-115 -163l-102 55l122 174q-102 102 -102 285 q0 137 35 263t103.5 223t171 155.5t235.5 58.5q125 0 217 -43zM377 150q59 -27 145 -27q109 0 184.5 56.5t98.5 160.5l67 324q6 31 7 47q0 68 -31 110z" />
<glyph unicode="&#xf9;" horiz-adv-x="1159" d="M764 1174h-152l-172 249h199zM713 162q-55 -92 -133 -139.5t-193 -47.5q-63 0 -116.5 20.5t-91.5 57.5t-59.5 88.5t-21.5 112.5q0 29 4 55.5t9 48.5l145 686h184l-143 -675q-4 -16 -7 -40t-3 -53q0 -154 162 -153q63 0 116 26.5t94 69.5t70 99.5t41 117.5l129 608h184 l-221 -1044h-184z" />
<glyph unicode="&#xfa;" horiz-adv-x="1159" d="M776 1423h215l-237 -249h-160zM713 162q-55 -92 -133 -139.5t-193 -47.5q-63 0 -116.5 20.5t-91.5 57.5t-59.5 88.5t-21.5 112.5q0 29 4 55.5t9 48.5l145 686h184l-143 -675q-4 -16 -7 -40t-3 -53q0 -154 162 -153q63 0 116 26.5t94 69.5t70 99.5t41 117.5l129 608h184 l-221 -1044h-184z" />
<glyph unicode="&#xfb;" horiz-adv-x="1159" d="M578 1174h-158l223 249h170l158 -249h-148l-104 149zM713 162q-55 -92 -133 -139.5t-193 -47.5q-63 0 -116.5 20.5t-91.5 57.5t-59.5 88.5t-21.5 112.5q0 29 4 55.5t9 48.5l145 686h184l-143 -675q-4 -16 -7 -40t-3 -53q0 -154 162 -153q63 0 116 26.5t94 69.5t70 99.5 t41 117.5l129 608h184l-221 -1044h-184z" />
<glyph unicode="&#xfc;" horiz-adv-x="1159" d="M936 1212h-180l37 181h180zM575 1212h-180l37 181h180zM713 162q-55 -92 -133 -139.5t-193 -47.5q-63 0 -116.5 20.5t-91.5 57.5t-59.5 88.5t-21.5 112.5q0 29 4 55.5t9 48.5l145 686h184l-143 -675q-4 -16 -7 -40t-3 -53q0 -154 162 -153q63 0 116 26.5t94 69.5t70 99.5 t41 117.5l129 608h184l-221 -1044h-184z" />
<glyph unicode="&#xfd;" horiz-adv-x="1069" d="M709 1423h215l-238 -249h-160zM451 227l446 817h205l-799 -1392h-373l35 158h244l106 190l-161 1044h192l96 -817h9z" />
<glyph unicode="&#xfe;" horiz-adv-x="1218" d="M-31 -348l371 1741h184l-104 -490q59 90 139 128t172 38q170 0 269.5 -95t99.5 -290q0 -131 -32 -258t-95.5 -227.5t-158.5 -162t-222 -61.5q-115 0 -204 58.5t-120 156.5l-114 -538h-185zM330 475q-12 -53 -13 -98q0 -68 22.5 -116t60.5 -78.5t85 -45t97 -14.5 q100 0 177 65.5t99 171.5l64 304q6 27 6 53q0 86 -60.5 145.5t-177.5 59.5q-125 0 -212 -76t-116 -215z" />
<glyph unicode="&#xff;" horiz-adv-x="1069" d="M905 1212h-180l37 181h180zM545 1212h-180l36 181h181zM451 227l446 817h205l-799 -1392h-373l35 158h244l106 190l-161 1044h192l96 -817h9z" />
<glyph unicode="&#x102;" horiz-adv-x="1310" d="M727 1772q-4 -20 -4 -31q0 -59 29.5 -95t113.5 -36q137 0 168 162h123q-23 -131 -104.5 -204t-198.5 -73t-186.5 63.5t-69.5 161.5q0 23 6 52h123zM432 508h438l-77 659h-5zM891 340h-549l-184 -340h-217l772 1393h229l191 -1393h-199z" />
<glyph unicode="&#x103;" horiz-adv-x="1206" d="M551 1423q-4 -20 -4 -30q0 -59 29.5 -95t113.5 -36q137 0 168 161h123q-23 -131 -104.5 -203.5t-198.5 -72.5t-186.5 63.5t-69.5 161.5q0 23 6 51h123zM756 141q-59 -90 -140 -128t-167 -38q-164 0 -263.5 99.5t-99.5 290.5q0 106 27.5 230t88 229.5t157 175t231.5 69.5 q106 0 191 -42t132 -140l33 157h184l-221 -1044h-184zM852 600q12 51 12 98q0 55 -21.5 97.5t-56 70t-82 42t-98.5 14.5q-102 0 -179 -65.5t-99 -172.5l-64 -303q-6 -29 -6 -53q0 -86 61.5 -145.5t169.5 -59.5q119 0 207 75.5t117 215.5z" />
<glyph unicode="&#x104;" horiz-adv-x="1310" d="M950 -348h-286l28 133l174 143h133l-147 -143h127zM432 508h438l-77 659h-5zM891 340h-549l-184 -340h-217l772 1393h229l191 -1393h-199z" />
<glyph unicode="&#x105;" horiz-adv-x="1206" d="M778 -348h-286l28 133l174 143h133l-147 -143h127zM756 141q-59 -90 -140 -128t-167 -38q-164 0 -263.5 99.5t-99.5 290.5q0 106 27.5 230t88 229.5t157 175t231.5 69.5q106 0 191 -42t132 -140l33 157h184l-221 -1044h-184zM852 600q12 51 12 98q0 55 -21.5 97.5t-56 70 t-82 42t-98.5 14.5q-102 0 -179 -65.5t-99 -172.5l-64 -303q-6 -29 -6 -53q0 -86 61.5 -145.5t169.5 -59.5q119 0 207 75.5t117 215.5z" />
<glyph unicode="&#x106;" horiz-adv-x="1304" d="M909 1772h215l-237 -250h-160zM631 -31q-240 0 -370 133.5t-130 389.5q0 172 41 339.5t124 299t211 212t300 80.5q100 0 186 -27.5t147.5 -80.5t96.5 -131t35 -178h-195q0 123 -75.5 185t-206.5 62q-147 0 -249 -89t-134 -236l-86 -404q-6 -35 -7 -67q0 -70 24 -128.5 t66 -100.5t99 -65.5t127 -23.5q135 0 214 62.5t124 204.5h194q-66 -213 -192.5 -325t-343.5 -112z" />
<glyph unicode="&#x107;" horiz-adv-x="1079" d="M760 1423h215l-238 -249h-159zM805 713q0 115 -59.5 162t-157.5 47q-39 0 -79 -12.5t-75 -40t-62.5 -70.5t-39.5 -103l-68 -311q-6 -29 -6 -53q0 -104 64.5 -156.5t158.5 -52.5q104 0 167 59.5t95 167.5h185q-47 -180 -164 -277.5t-291 -97.5q-178 0 -281.5 95.5 t-103.5 298.5q0 139 35 266t100.5 223t161.5 153.5t217 57.5q186 0 285.5 -98.5t99.5 -268.5h-182v11z" />
<glyph unicode="&#x10c;" horiz-adv-x="1304" d="M979 1772h158l-224 -250h-170l-157 250h147l105 -150zM631 -31q-240 0 -370 133.5t-130 389.5q0 172 41 339.5t124 299t211 212t300 80.5q100 0 186 -27.5t147.5 -80.5t96.5 -131t35 -178h-195q0 123 -75.5 185t-206.5 62q-147 0 -249 -89t-134 -236l-86 -404 q-6 -35 -7 -67q0 -70 24 -128.5t66 -100.5t99 -65.5t127 -23.5q135 0 214 62.5t124 204.5h194q-66 -213 -192.5 -325t-343.5 -112z" />
<glyph unicode="&#x10d;" horiz-adv-x="1079" d="M793 1423h157l-223 -249h-170l-158 249h148l104 -149zM805 713q0 115 -59.5 162t-157.5 47q-39 0 -79 -12.5t-75 -40t-62.5 -70.5t-39.5 -103l-68 -311q-6 -29 -6 -53q0 -104 64.5 -156.5t158.5 -52.5q104 0 167 59.5t95 167.5h185q-47 -180 -164 -277.5t-291 -97.5 q-178 0 -281.5 95.5t-103.5 298.5q0 139 35 266t100.5 223t161.5 153.5t217 57.5q186 0 285.5 -98.5t99.5 -268.5h-182v11z" />
<glyph unicode="&#x10e;" horiz-adv-x="1368" d="M950 1772h158l-223 -250h-170l-158 250h148l104 -150zM516 1219l-221 -1045h276q170 0 283 82t145 236l76 364q8 41 8 76q0 133 -86 210t-245 77h-236zM748 1393q256 0 391 -122t135 -358q0 -188 -40 -355t-126 -291t-223 -195.5t-330 -71.5h-492l295 1393h390z" />
<glyph unicode="&#x10f;" horiz-adv-x="1355" d="M858 569q12 51 12 99q0 68 -22.5 115.5t-60 78.5t-85 45.5t-96.5 14.5q-100 0 -177 -65.5t-99 -172.5l-64 -303q-6 -29 -6 -53q0 -86 60.5 -145.5t177.5 -59.5q125 0 212 75.5t115 215.5zM1217 1393l-295 -1393h-185l31 141q-59 -90 -139 -128t-172 -38 q-170 0 -269.5 95.5t-99.5 289.5q0 131 32 258t95.5 227.5t158.5 162t222 61.5q115 0 204 -58.5t120 -156.5l112 539h185zM1518 1167l-172 -225h-103l166 225h-117l47 226h226z" />
<glyph unicode="&#x110;" horiz-adv-x="1382" d="M209 623h-148l31 147h148l133 623h389q256 0 391 -122t135 -358q0 -188 -40 -355t-126 -291t-223 -195.5t-330 -71.5h-491zM403 623l-94 -449h277q170 0 282.5 82t145.5 236l76 364q8 41 8 76q0 133 -86 210t-246 77h-236l-96 -449h320l-31 -147h-320z" />
<glyph unicode="&#x111;" horiz-adv-x="1218" d="M858 569q12 51 12 99q0 68 -22.5 115.5t-60 78.5t-85 45.5t-96.5 14.5q-100 0 -177 -65.5t-99 -172.5l-64 -303q-6 -29 -6 -53q0 -86 60.5 -145.5t177.5 -59.5q125 0 212 75.5t115 215.5zM1217 1393l-27 -119h192l-26 -123h-191l-243 -1151h-185l31 141 q-59 -90 -139 -128t-172 -38q-170 0 -269.5 95.5t-99.5 289.5q0 131 32 258t95.5 227.5t158.5 162t222 61.5q115 0 204 -58.5t120 -156.5l61 297h-307l26 123h308l24 119h185z" />
<glyph unicode="&#x118;" horiz-adv-x="1234" d="M567 -348h-286l28 133l174 143h133l-147 -143h127zM358 1393h924l-37 -174h-729l-90 -422h635l-37 -174h-635l-94 -449h729l-37 -174h-924z" />
<glyph unicode="&#x119;" horiz-adv-x="1120" d="M479 -348h-286l28 133l174 143h133l-147 -143h127zM317 618h512l9 37q6 31 6 58q0 104 -71 156.5t-171 52.5q-88 0 -166 -53.5t-102 -172.5zM90 389q0 131 35 254t102.5 218t166 151.5t224.5 56.5q98 0 173 -30.5t126.5 -84t77 -125t25.5 -153.5q0 -41 -6 -84t-27 -121 h-702l-19 -86q-6 -29 -6 -53q0 -53 19.5 -92t53.5 -64.5t77 -39t90 -13.5q98 0 165.5 58.5t100.5 150.5h184q-55 -172 -175 -264.5t-288 -92.5q-184 0 -290.5 99.5t-106.5 314.5z" />
<glyph unicode="&#x11a;" horiz-adv-x="1234" d="M979 1772h158l-224 -250h-170l-157 250h147l105 -150zM358 1393h924l-37 -174h-729l-90 -422h635l-37 -174h-635l-94 -449h729l-37 -174h-924z" />
<glyph unicode="&#x11b;" horiz-adv-x="1120" d="M799 1423h157l-223 -249h-170l-157 249h147l104 -149zM317 618h512l9 37q6 31 6 58q0 104 -71 156.5t-171 52.5q-88 0 -166 -53.5t-102 -172.5zM90 389q0 131 35 254t102.5 218t166 151.5t224.5 56.5q98 0 173 -30.5t126.5 -84t77 -125t25.5 -153.5q0 -41 -6 -84 t-27 -121h-702l-19 -86q-6 -29 -6 -53q0 -53 19.5 -92t53.5 -64.5t77 -39t90 -13.5q98 0 165.5 58.5t100.5 150.5h184q-55 -172 -175 -264.5t-288 -92.5q-184 0 -290.5 99.5t-106.5 314.5z" />
<glyph unicode="&#x11e;" horiz-adv-x="1372" d="M715 1772q-4 -20 -4 -31q0 -59 29.5 -95t113.5 -36q137 0 168 162h123q-23 -131 -105 -204t-198 -73q-117 0 -186.5 63.5t-69.5 161.5q0 23 6 52h123zM604 -31q-109 0 -195.5 35t-148 101.5t-95.5 164t-34 222.5q0 172 41 339.5t125 299t214 212t306 80.5 q104 0 192.5 -27.5t151 -79.5t97 -131t34.5 -179h-194q0 127 -77 187t-216 60q-156 0 -259.5 -89t-133.5 -236l-86 -404q-6 -35 -7 -67q0 -70 24 -128.5t66 -100.5t99 -65.5t127 -23.5q147 0 246.5 85t134.5 251l20 94h-315l37 174h510l-158 -743h-186l20 137 q-63 -80 -151.5 -124t-188.5 -44z" />
<glyph unicode="&#x11f;" horiz-adv-x="1218" d="M555 1423q-4 -20 -4 -30q0 -59 29.5 -95t113.5 -36q137 0 168 161h123q-23 -131 -104.5 -203.5t-198.5 -72.5t-186.5 63.5t-69.5 161.5q0 23 6 51h123zM858 569q12 51 12 99q0 68 -22.5 115.5t-60 78.5t-85 45.5t-96.5 14.5q-100 0 -177 -65.5t-99 -172.5l-64 -303 q-6 -29 -6 -53q0 -86 60.5 -145.5t177.5 -59.5q125 0 212 75.5t115 215.5zM922 0q-23 -109 -76 -184.5t-123 -123.5t-149.5 -69.5t-155.5 -21.5q-90 0 -164 21.5t-128 63.5t-84 103t-30 139h185q0 -180 243 -180q45 0 92.5 15.5t89.5 49t73.5 87t47.5 129.5l25 112 q-59 -90 -139 -128t-172 -38q-170 0 -269.5 94.5t-99.5 290.5q0 131 32 258t94 227.5t157.5 162t224.5 61.5q115 0 204 -58.5t120 -156.5l38 190h185z" />
<glyph unicode="&#x130;" horiz-adv-x="573" d="M541 1561h-181l37 180h181zM358 1393h195l-295 -1393h-195z" />
<glyph unicode="&#x131;" horiz-adv-x="526" d="M45 0l221 1044h185l-222 -1044h-184z" />
<glyph unicode="&#x141;" horiz-adv-x="1091" d="M227 522l-221 -114l35 167l221 115l150 703h194l-125 -590l350 182l-36 -168l-351 -182l-96 -461h631l-37 -174h-825z" />
<glyph unicode="&#x142;" horiz-adv-x="632" d="M436 719l-151 -719h-185l129 610l-176 -90l37 168l174 90l131 615h185l-107 -506l174 90l-37 -168z" />
<glyph unicode="&#x143;" horiz-adv-x="1417" d="M879 1772h215l-238 -250h-160zM954 244h9l243 1149h191l-295 -1393h-266l-330 1151h-8l-244 -1151h-191l295 1393h267z" />
<glyph unicode="&#x144;" horiz-adv-x="1169" d="M723 1423h215l-238 -249h-159zM416 883q55 92 134 139t195 47q131 0 212 -77t81 -199q0 -29 -4 -55.5t-8 -49.5l-145 -688h-185l144 676q4 16 7 39.5t3 52.5q0 78 -40 116t-126 38q-66 0 -119 -26t-95 -69t-70.5 -99t-41.5 -118l-129 -610h-184l221 1044h185z" />
<glyph unicode="&#x147;" horiz-adv-x="1417" d="M1030 1772h158l-223 -250h-170l-158 250h147l105 -150zM954 244h9l243 1149h191l-295 -1393h-266l-330 1151h-8l-244 -1151h-191l295 1393h267z" />
<glyph unicode="&#x148;" horiz-adv-x="1169" d="M866 1423h158l-223 -249h-170l-158 249h148l104 -149zM416 883q55 92 134 139t195 47q131 0 212 -77t81 -199q0 -29 -4 -55.5t-8 -49.5l-145 -688h-185l144 676q4 16 7 39.5t3 52.5q0 78 -40 116t-126 38q-66 0 -119 -26t-95 -69t-70.5 -99t-41.5 -118l-129 -610h-184 l221 1044h185z" />
<glyph unicode="&#x150;" horiz-adv-x="1447" d="M1112 1772h215l-227 -250h-160zM778 1772h215l-227 -250h-160zM668 139q158 0 267 85t144 243l86 405q8 35 9 76q0 72 -28 129.5t-76 96t-111.5 59t-135.5 20.5q-78 0 -145.5 -22.5t-121.5 -64.5t-92 -103.5t-54 -136.5l-86 -406q-8 -35 -9 -74q0 -72 29 -128t77 -96 t111.5 -61.5t135.5 -21.5zM1360 915q0 -188 -43 -359t-131 -302t-221.5 -208t-313.5 -77q-248 0 -384 129t-136 377q0 188 42 360.5t129 302.5t220 207.5t314 77.5q248 0 386 -130t138 -378z" />
<glyph unicode="&#x151;" horiz-adv-x="1169" d="M897 1423h215l-227 -249h-160zM563 1423h215l-227 -249h-160zM872 664q6 31 7 47q0 111 -77 161t-188 50q-109 0 -184.5 -56.5t-97.5 -160.5l-68 -324q-6 -31 -6 -47q0 -111 77 -161t187 -50q109 0 184.5 56.5t98.5 160.5zM504 -25q-197 0 -306.5 101.5t-109.5 294.5 q0 137 35 263t103.5 222t171 154.5t235.5 58.5q197 0 306.5 -101.5t109.5 -293.5q0 -137 -35 -263t-103.5 -223.5t-171 -155t-235.5 -57.5z" />
<glyph unicode="&#x152;" horiz-adv-x="2152" d="M651 -31q-248 0 -384 129t-136 377q0 188 42 360.5t129 302.5t220 207.5t314 77.5q276 0 411 -163l29 133h924l-37 -174h-729l-91 -422h635l-36 -174h-635l-95 -449h730l-37 -174h-924l14 66q-68 -47 -156 -72t-188 -25zM823 1253q-78 0 -145.5 -22.5t-121.5 -64.5 t-92 -103.5t-54 -136.5l-86 -406q-8 -35 -9 -74q0 -72 29 -128t77 -96t111.5 -61.5t135.5 -21.5q158 0 267 85t144 243l86 405q8 35 9 76q0 72 -28 129.5t-76 96t-111.5 59t-135.5 20.5z" />
<glyph unicode="&#x153;" horiz-adv-x="1851" d="M1219 -25q-115 0 -205 43t-140 129q-66 -78 -156.5 -125t-213.5 -47q-197 0 -306.5 102.5t-109.5 295.5q0 137 35 263t103.5 222t171 153.5t235.5 57.5q127 0 218 -43t140 -127q66 78 154 124t205 46q98 0 172.5 -30.5t126 -84t77 -125t25.5 -153.5q0 -41 -6 -84 t-27 -121h-702l-19 -86q-6 -29 -6 -53q0 -53 19.5 -92t53.5 -64.5t77 -39t90 -13.5q98 0 165.5 58.5t100.5 150.5h184q-55 -172 -174.5 -264.5t-287.5 -92.5zM1049 618h512l8 37q6 31 6 58q0 104 -70.5 156.5t-171.5 52.5q-88 0 -165.5 -53.5t-102.5 -172.5zM872 664 q6 25 7 47q0 111 -77 161t-188 50q-109 0 -184.5 -56.5t-97.5 -160.5l-68 -324q-6 -25 -6 -47q0 -111 77 -161t187 -50q109 0 184.5 56.5t98.5 160.5z" />
<glyph unicode="&#x158;" horiz-adv-x="1273" d="M926 1772h157l-223 -250h-170l-158 250h148l104 -150zM784 754q197 0 226 139l32 149q6 25 7 48q0 61 -41 95t-115 34h-377l-98 -465h366zM381 580l-123 -580h-195l295 1393h516q172 0 269.5 -84t97.5 -238q0 -215 -116.5 -339t-315.5 -148l219 -584h-207l-203 580h-237z " />
<glyph unicode="&#x159;" horiz-adv-x="733" d="M684 1423h158l-224 -249h-169l-158 249h147l105 -149zM266 1044h502l-35 -159h-317l-187 -885h-184z" />
<glyph unicode="&#x15a;" horiz-adv-x="1259" d="M840 1772h215l-238 -250h-160zM1008 1014q-2 123 -77 181t-235 58q-57 0 -107 -16t-87 -46t-58.5 -72t-21.5 -95q0 -29 7 -56.5t26.5 -52t53.5 -47t87 -39.5l219 -69q164 -53 234.5 -136t70.5 -198q0 -102 -44 -186t-119.5 -144.5t-178 -93.5t-221.5 -33 q-104 0 -195.5 25.5t-161 81t-109.5 139.5t-40 201h195q0 -74 26.5 -126t71.5 -86t105.5 -49.5t125.5 -15.5q70 0 132.5 17.5t109.5 51.5t75 83t28 110q0 23 -5.5 48.5t-24 50t-53 48t-92.5 40.5l-217 63q-86 25 -143 63t-93 85t-50.5 102t-14.5 115q0 88 38 163.5 t104.5 129t157.5 84t198 30.5q221 0 349 -100t128 -309h-194z" />
<glyph unicode="&#x15b;" horiz-adv-x="1046" d="M700 1423h215l-237 -249h-160zM616 588q55 -16 104.5 -41t86.5 -57.5t58.5 -75.5t21.5 -97q0 -76 -34 -139t-93.5 -108t-141 -70t-176.5 -25q-86 0 -160.5 22.5t-130 65.5t-87 104.5t-31.5 139.5v33h184v-33q0 -49 22.5 -85t57.5 -57.5t79 -31.5t87 -10q49 0 92 12t75 35 t51 53.5t19 65.5q0 53 -44 89t-126 62l-143 45q-98 31 -159.5 96.5t-61.5 159.5q0 74 28.5 134.5t83 103.5t129 66.5t166.5 23.5q76 0 144.5 -19.5t119 -57.5t80 -94t29.5 -132v-33h-184v31q0 43 -17.5 73.5t-46 49t-65.5 27t-74 8.5q-92 0 -152.5 -39t-60.5 -113 q0 -43 26.5 -79t86.5 -54z" />
<glyph unicode="&#x15e;" horiz-adv-x="1259" d="M285 -215h143l31 143h143l-59 -276h-287zM1008 1014q-2 123 -77 181t-235 58q-57 0 -107 -16t-87 -46t-58.5 -72t-21.5 -95q0 -29 7 -56.5t26.5 -52t53.5 -47t87 -39.5l219 -69q164 -53 234.5 -136t70.5 -198q0 -102 -44 -186t-119.5 -144.5t-178 -93.5t-221.5 -33 q-104 0 -195.5 25.5t-161 81t-109.5 139.5t-40 201h195q0 -74 26.5 -126t71.5 -86t105.5 -49.5t125.5 -15.5q70 0 132.5 17.5t109.5 51.5t75 83t28 110q0 23 -5.5 48.5t-24 50t-53 48t-92.5 40.5l-217 63q-86 25 -143 63t-93 85t-50.5 102t-14.5 115q0 88 38 163.5 t104.5 129t157.5 84t198 30.5q221 0 349 -100t128 -309h-194z" />
<glyph unicode="&#x15f;" horiz-adv-x="1046" d="M178 -215h144l30 143h144l-60 -276h-286zM616 588q55 -16 104.5 -41t86.5 -57.5t58.5 -75.5t21.5 -97q0 -76 -34 -139t-93.5 -108t-141 -70t-176.5 -25q-86 0 -160.5 22.5t-130 65.5t-87 104.5t-31.5 139.5v33h184v-33q0 -49 22.5 -85t57.5 -57.5t79 -31.5t87 -10 q49 0 92 12t75 35t51 53.5t19 65.5q0 53 -44 89t-126 62l-143 45q-98 31 -159.5 96.5t-61.5 159.5q0 74 28.5 134.5t83 103.5t129 66.5t166.5 23.5q76 0 144.5 -19.5t119 -57.5t80 -94t29.5 -132v-33h-184v31q0 43 -17.5 73.5t-46 49t-65.5 27t-74 8.5q-92 0 -152.5 -39 t-60.5 -113q0 -43 26.5 -79t86.5 -54z" />
<glyph unicode="&#x160;" horiz-adv-x="1259" d="M940 1772h158l-224 -250h-169l-158 250h147l105 -150zM1008 1014q-2 123 -77 181t-235 58q-57 0 -107 -16t-87 -46t-58.5 -72t-21.5 -95q0 -29 7 -56.5t26.5 -52t53.5 -47t87 -39.5l219 -69q164 -53 234.5 -136t70.5 -198q0 -102 -44 -186t-119.5 -144.5t-178 -93.5 t-221.5 -33q-104 0 -195.5 25.5t-161 81t-109.5 139.5t-40 201h195q0 -74 26.5 -126t71.5 -86t105.5 -49.5t125.5 -15.5q70 0 132.5 17.5t109.5 51.5t75 83t28 110q0 23 -5.5 48.5t-24 50t-53 48t-92.5 40.5l-217 63q-86 25 -143 63t-93 85t-50.5 102t-14.5 115 q0 88 38 163.5t104.5 129t157.5 84t198 30.5q221 0 349 -100t128 -309h-194z" />
<glyph unicode="&#x161;" horiz-adv-x="1046" d="M758 1423h157l-223 -249h-170l-157 249h147l104 -149zM616 588q55 -16 104.5 -41t86.5 -57.5t58.5 -75.5t21.5 -97q0 -76 -34 -139t-93.5 -108t-141 -70t-176.5 -25q-86 0 -160.5 22.5t-130 65.5t-87 104.5t-31.5 139.5v33h184v-33q0 -49 22.5 -85t57.5 -57.5t79 -31.5 t87 -10q49 0 92 12t75 35t51 53.5t19 65.5q0 53 -44 89t-126 62l-143 45q-98 31 -159.5 96.5t-61.5 159.5q0 74 28.5 134.5t83 103.5t129 66.5t166.5 23.5q76 0 144.5 -19.5t119 -57.5t80 -94t29.5 -132v-33h-184v31q0 43 -17.5 73.5t-46 49t-65.5 27t-74 8.5 q-92 0 -152.5 -39t-60.5 -113q0 -43 26.5 -79t86.5 -54z" />
<glyph unicode="&#x162;" horiz-adv-x="1101" d="M162 -215h143l31 143h143l-59 -276h-287zM207 1393h1026l-37 -174h-416l-258 -1219h-194l258 1219h-416z" />
<glyph unicode="&#x163;" horiz-adv-x="741" d="M59 -215h144l30 143h144l-60 -276h-286zM326 154h239l-30 -154h-424l188 887h-174l33 157h174l74 349h184l-74 -349h240l-33 -157h-240z" />
<glyph unicode="&#x164;" horiz-adv-x="1101" d="M879 1772h157l-223 -250h-170l-158 250h148l104 -150zM207 1393h1026l-37 -174h-416l-258 -1219h-194l258 1219h-416z" />
<glyph unicode="&#x165;" horiz-adv-x="913" d="M1100 1167l-172 -225h-103l166 225h-117l48 226h225zM324 154h239l-31 -154h-421l188 887h-176l33 157h176l74 349h182l-74 -349h240l-33 -157h-240z" />
<glyph unicode="&#x16e;" horiz-adv-x="1402" d="M987 1681q0 37 -24.5 64t-65.5 27t-66.5 -27t-25.5 -64t25.5 -64.5t66.5 -27.5t65.5 27.5t24.5 64.5zM1079 1681q0 -70 -48 -123t-134 -53t-134 53.5t-48 122.5q0 68 48 122.5t134 54.5t134 -54.5t48 -122.5zM1196 1374h193l-199 -938q-25 -115 -70 -205t-115.5 -152.5 t-167 -95t-223.5 -32.5q-102 0 -188 29.5t-147.5 87t-96.5 140.5t-35 189q0 63 17 142l176 835h195l-189 -882q-6 -27 -8 -48.5t-2 -44.5q0 -139 82 -208.5t221 -69.5q291 0 358 321z" />
<glyph unicode="&#x16f;" horiz-adv-x="1159" d="M799 1333q0 37 -24.5 63.5t-65.5 26.5t-67 -26.5t-26 -63.5t26 -64.5t67 -27.5t65.5 27.5t24.5 64.5zM891 1333q0 -70 -48 -123t-134 -53t-134.5 53.5t-48.5 122.5q0 68 48.5 122t134.5 54t134 -54t48 -122zM713 162q-55 -92 -133 -139.5t-193 -47.5q-63 0 -116.5 20.5 t-91.5 57.5t-59.5 88.5t-21.5 112.5q0 29 4 55.5t9 48.5l145 686h184l-143 -675q-4 -16 -7 -40t-3 -53q0 -154 162 -153q63 0 116 26.5t94 69.5t70 99.5t41 117.5l129 608h184l-221 -1044h-184z" />
<glyph unicode="&#x170;" horiz-adv-x="1400" d="M1100 1772h215l-228 -250h-159zM766 1772h215l-227 -250h-160zM1198 1393h193l-199 -938q-25 -115 -70 -205t-115.5 -152.5t-167 -95.5t-223.5 -33q-102 0 -188 30t-147.5 87t-96 140t-34.5 190q0 63 16 141l176 836h195l-189 -883q-6 -27 -8 -48.5t-2 -43.5 q0 -139 82 -209t221 -70q291 0 358 322z" />
<glyph unicode="&#x171;" horiz-adv-x="1159" d="M926 1423h215l-228 -249h-159zM592 1423h215l-227 -249h-160zM713 162q-55 -92 -133 -139.5t-193 -47.5q-63 0 -116.5 20.5t-91.5 57.5t-59.5 88.5t-21.5 112.5q0 29 4 55.5t9 48.5l145 686h184l-143 -675q-4 -16 -7 -40t-3 -53q0 -154 162 -153q63 0 116 26.5t94 69.5 t70 99.5t41 117.5l129 608h184l-221 -1044h-184z" />
<glyph unicode="&#x178;" horiz-adv-x="1196" d="M1047 1561h-181l37 180h180zM686 1561h-180l37 180h180zM201 1393h200l209 -648l484 648h225l-641 -840l-117 -553h-194l116 555z" />
<glyph unicode="&#x179;" horiz-adv-x="1212" d="M807 1772h215l-238 -250h-159zM1227 1219l-967 -1045h754l-37 -174h-997l36 174l969 1045h-727l37 174h969z" />
<glyph unicode="&#x17a;" horiz-adv-x="993" d="M692 1423h215l-237 -249h-160zM797 158l-33 -158h-787l33 158l697 729h-521l33 157h746l-33 -157l-696 -729h561z" />
<glyph unicode="&#x17b;" horiz-adv-x="1212" d="M899 1561h-180l37 180h180zM1227 1219l-967 -1045h754l-37 -174h-997l36 174l969 1045h-727l37 174h969z" />
<glyph unicode="&#x17c;" horiz-adv-x="993" d="M705 1212h-181l37 181h180zM797 158l-33 -158h-787l33 158l697 729h-521l33 157h746l-33 -157l-696 -729h561z" />
<glyph unicode="&#x17d;" horiz-adv-x="1212" d="M932 1772h158l-224 -250h-170l-157 250h147l105 -150zM1227 1219l-967 -1045h754l-37 -174h-997l36 174l969 1045h-727l37 174h969z" />
<glyph unicode="&#x17e;" horiz-adv-x="993" d="M760 1423h158l-224 -249h-170l-157 249h147l104 -149zM797 158l-33 -158h-787l33 158l697 729h-521l33 157h746l-33 -157l-696 -729h561z" />
<glyph unicode="&#x218;" horiz-adv-x="1259" d="M1008 1014q-2 123 -77 181t-235 58q-57 0 -107 -16t-87 -46t-58.5 -72t-21.5 -95q0 -29 7 -56.5t26.5 -52t53.5 -47t87 -39.5l219 -69q166 -53 235.5 -136t69.5 -198q0 -102 -43 -186t-118.5 -144.5t-179 -93.5t-222.5 -33q-104 0 -195.5 25.5t-161 81t-109.5 139.5 t-40 201h195q0 -74 26.5 -126t71.5 -86t104.5 -49.5t124.5 -15.5q68 0 130.5 17.5t109.5 51.5t74.5 83t27.5 110q0 23 -5 48.5t-21.5 50t-51 48t-92.5 40.5l-217 63q-86 25 -143 63t-93 85t-50.5 102t-14.5 115q0 88 38 163.5t104.5 129t157.5 84t198 30.5q221 0 349 -100 t128 -309h-194zM596 -307l-137 -180h-82l131 180h-92l37 180h180z" />
<glyph unicode="&#x219;" horiz-adv-x="1046" d="M616 588q55 -16 104.5 -41t86.5 -57.5t58.5 -75.5t21.5 -97q0 -76 -34 -139t-93.5 -108t-141 -70t-176.5 -25q-86 0 -160.5 22.5t-130 65.5t-87 104.5t-31.5 139.5v33h184v-33q0 -49 22.5 -85t57.5 -57.5t79 -31.5t87 -10q49 0 92 12t75 35t51 53.5t19 65.5q0 53 -44 89 t-126 62l-143 45q-98 31 -159.5 96.5t-61.5 159.5q0 74 28.5 134.5t83 103.5t129 66.5t166.5 23.5q76 0 144.5 -19.5t119 -57.5t80 -94t29.5 -132v-33h-184v31q0 43 -17.5 73.5t-46 49t-65.5 27t-74 8.5q-92 0 -152.5 -39t-60.5 -113q0 -43 26.5 -79t86.5 -54zM483 -307 l-137 -180h-82l131 180h-92l37 180h180z" />
<glyph unicode="&#x21a;" horiz-adv-x="1101" d="M449 -307l-138 -180h-78l132 180h-97l37 180h180zM207 1393h1026l-37 -174h-416l-258 -1219h-194l258 1219h-416z" />
<glyph unicode="&#x21b;" horiz-adv-x="739" d="M358 -307l-137 -180h-78l131 180h-96l37 180h180zM324 154h239l-31 -154h-421l188 887h-176l33 157h176l74 349h182l-74 -349h240l-33 -157h-240z" />
<glyph unicode="&#x2c6;" horiz-adv-x="614" d="M188 1174h-157l223 249h170l158 -249h-148l-104 149z" />
<glyph unicode="&#x2da;" horiz-adv-x="614" d="M397 1333q0 37 -24.5 63.5t-65.5 26.5t-66.5 -26.5t-25.5 -63.5t25.5 -64.5t66.5 -27.5t65.5 27.5t24.5 64.5zM489 1333q0 -70 -48 -123t-134 -53t-134 53.5t-48 122.5q0 68 48 122t134 54t134 -54t48 -122z" />
<glyph unicode="&#x2dc;" horiz-adv-x="614" d="M639 1393q-16 -92 -67.5 -143.5t-133.5 -51.5q-43 0 -81 15.5t-72.5 34t-65.5 33.5t-57 15q-70 0 -86 -77h-103q16 92 67.5 143t133.5 51q43 0 81 -15.5t72.5 -33.5t65.5 -33.5t58 -15.5q70 0 86 78h102z" />
<glyph unicode="&#x2000;" horiz-adv-x="929" />
<glyph unicode="&#x2001;" horiz-adv-x="1858" />
<glyph unicode="&#x2002;" horiz-adv-x="929" />
<glyph unicode="&#x2003;" horiz-adv-x="1858" />
<glyph unicode="&#x2004;" horiz-adv-x="619" />
<glyph unicode="&#x2005;" horiz-adv-x="464" />
<glyph unicode="&#x2006;" horiz-adv-x="309" />
<glyph unicode="&#x2007;" horiz-adv-x="309" />
<glyph unicode="&#x2008;" horiz-adv-x="232" />
<glyph unicode="&#x2009;" horiz-adv-x="371" />
<glyph unicode="&#x200a;" horiz-adv-x="103" />
<glyph unicode="&#x2010;" horiz-adv-x="886" d="M166 639h573l-37 -168h-573z" />
<glyph unicode="&#x2011;" horiz-adv-x="886" d="M166 639h573l-37 -168h-573z" />
<glyph unicode="&#x2012;" horiz-adv-x="886" d="M166 639h573l-37 -168h-573z" />
<glyph unicode="&#x2013;" horiz-adv-x="1275" d="M166 639h962l-36 -168h-963z" />
<glyph unicode="&#x2014;" horiz-adv-x="2314" d="M203 639h1925l-37 -168h-1925z" />
<glyph unicode="&#x2018;" horiz-adv-x="526" d="M266 1167l172 226h103l-166 -226h117l-48 -225h-225z" />
<glyph unicode="&#x2019;" horiz-adv-x="514" d="M502 1167l-172 -225h-103l166 225h-117l48 226h225z" />
<glyph unicode="&#x201a;" horiz-adv-x="540" d="M258 0l-172 -225h-102l166 225h-117l47 225h225z" />
<glyph unicode="&#x201c;" horiz-adv-x="915" d="M655 1167l172 226h103l-166 -226h117l-47 -225h-226zM266 1167l172 226h103l-166 -226h117l-48 -225h-225z" />
<glyph unicode="&#x201d;" horiz-adv-x="903" d="M502 1167l-172 -225h-103l166 225h-117l48 226h225zM891 1167l-172 -225h-103l166 225h-116l47 226h225z" />
<glyph unicode="&#x201e;" horiz-adv-x="929" d="M258 0l-172 -225h-102l166 225h-117l47 225h225zM647 0l-172 -225h-102l166 225h-117l47 225h225z" />
<glyph unicode="&#x2022;" horiz-adv-x="1079" d="M213 696q0 72 26.5 135.5t73.5 110.5t110.5 74.5t135.5 27.5t135.5 -27.5t110.5 -74.5t74.5 -110.5t27.5 -135.5t-27.5 -135t-74.5 -110.5t-110.5 -74t-135.5 -26.5t-135.5 26.5t-110.5 74t-73.5 110.5t-26.5 135z" />
<glyph unicode="&#x2026;" horiz-adv-x="1892" d="M1610 0h-226l48 225h225zM934 0h-225l47 225h225zM258 0h-225l47 225h225z" />
<glyph unicode="&#x202f;" horiz-adv-x="371" />
<glyph unicode="&#x2039;" horiz-adv-x="622" d="M252 145l-143 422l284 340h164l-281 -370l119 -392h-143z" />
<glyph unicode="&#x203a;" horiz-adv-x="620" d="M340 907l143 -422l-284 -340h-164l280 371l-118 391h143z" />
<glyph unicode="&#x205f;" horiz-adv-x="464" />
<glyph unicode="&#x20ac;" d="M137 883h94q33 117 87.5 216t127 171.5t163.5 112.5t200 40q199 0 314.5 -99t115.5 -298h-184q0 123 -70 180.5t-192 57.5q-129 0 -213 -79t-117 -233l-14 -69h458l-57 -121h-428l-27 -125h375l-55 -121h-346q-10 -57 -11 -98q0 -141 72 -215t193 -74q55 0 100 13.5 t82 43t64.5 78.5t50.5 121h184q-47 -199 -172 -307.5t-332 -108.5q-211 0 -316.5 135.5t-105.5 370.5v41h-147l55 121h100q4 33 8.5 63.5t8.5 61.5h-121z" />
<glyph unicode="&#x2122;" horiz-adv-x="1853" d="M1524 1393h219v-697h-144v504l-176 -504h-133l-174 504v-504h-143v697h223l164 -488zM274 1393h562v-129h-209v-568h-144v568h-209v129z" />
<glyph unicode="&#x2190;" horiz-adv-x="1761" d="M866 1044l-436 -438h1147v-168h-1147l436 -438h-235l-447 449v147l447 448h235z" />
<glyph unicode="&#x2192;" horiz-adv-x="1761" d="M1130 1044l447 -448v-147l-447 -449h-235l436 438h-1147v168h1147l-436 438h235z" />
<glyph unicode="&#x25fc;" horiz-adv-x="1044" d="M0 1044h1044v-1044h-1044v1044z" />
<glyph horiz-adv-x="1015" d="M377 1057l143 -422l-284 -340h-164l280 371l-119 391h144zM760 1057l143 -422l-285 -340h-163l280 371l-119 391h144z" />
<glyph horiz-adv-x="632" d="M377 1057l143 -422l-284 -340h-164l280 371l-119 391h144z" />
<glyph horiz-adv-x="1015" d="M672 295l-144 422l285 340h164l-281 -371l119 -391h-143zM289 295l-144 422l285 340h164l-281 -371l119 -391h-143z" />
<glyph horiz-adv-x="632" d="M289 295l-144 422l285 340h164l-281 -371l119 -391h-143z" />
<glyph horiz-adv-x="737" d="M856 1604l-33 -152h-256l-321 -1511h252l-33 -152h-426l387 1815h430z" />
<glyph horiz-adv-x="800" d="M487 1604h431l-33 -152h-256l-144 -678h-174zM82 618l35 156h194l-35 -156h175l-144 -677h256l-33 -152h-430l176 829h-194z" />
<glyph horiz-adv-x="653" d="M297 537q-16 -82 -16 -158q0 -147 30.5 -286.5t102.5 -303.5h-154q-70 154 -104.5 329t-34.5 361q0 305 129 597t385 528h174q-182 -184 -284.5 -338t-135.5 -301z" />
<glyph horiz-adv-x="735" d="M739 1604l-387 -1815h-430l33 152h256l321 1511h-251l32 152h426z" />
<glyph horiz-adv-x="800" d="M354 -211h-430l33 152h256l143 677h174zM760 774l-35 -156h-195l35 156h-174l144 678h-256l32 152h430l-176 -830h195z" />
<glyph horiz-adv-x="655" d="M399 856q16 82 17 158q0 147 -31 286.5t-102 303.5h153q70 -154 104.5 -329t34.5 -362q0 -305 -129 -596.5t-385 -527.5h-174q182 184 284.5 338t135.5 301z" />
<glyph horiz-adv-x="1290" d="M197 768h962l-35 -168h-962z" />
<glyph horiz-adv-x="2347" d="M242 768h1925l-35 -168h-1925z" />
<glyph horiz-adv-x="901" d="M197 768h573l-35 -168h-573z" />
<glyph horiz-adv-x="901" d="M197 768h573l-35 -168h-573z" />
<glyph horiz-adv-x="1652" d="M535 348l155 729h553l-123 -571h185l155 729h-921l-222 -1045h738l-35 -157h-922l289 1360h1290l-221 -1045h-921zM752 506h184l88 414h-184z" />
<glyph horiz-adv-x="669" d="M268 1741h174v-2089h-174v2089z" />
<glyph d="M219 145l-113 113l412 410l-412 411l113 113l410 -412l411 412l113 -113l-412 -411l412 -410l-111 -111l-411 412z" />
<glyph d="M106 594v147h445v449h156v-449h444v-147h-444v-449h-156v449h-445z" />
<glyph d="M735 981h-209v211h209v-211zM735 147h-209v211h209v-211zM1153 596h-1044v147h1044v-147z" />
<glyph d="M98 385v147h1045v-147h-1045zM98 807v147h1045v-147h-1045z" />
<glyph d="M1100 1032l-844 -362l844 -363v-160l-1045 449v147l1045 449v-160z" />
<glyph d="M160 1192l1044 -449v-147l-1044 -449v160l844 363l-844 362v160z" />
<glyph d="M1118 147h-1044v148h1044v-148zM74 719v147h444v326h156v-326h444v-147h-444v-326h-156v326h-444z" />
<glyph d="M985 807h-893v147h1045v-561h-152v414z" />
</font>
</defs>
</svg>
