<svg width="18" height="18" viewBox="0 0 18 18" fill="none" xmlns="http://www.w3.org/2000/svg">
<g clip-path="url(#clip0)">
<path d="M12.9356 7.26602C12.9293 6.13944 13.4389 5.28897 14.4706 4.66303C13.8936 3.83736 13.0216 3.38303 11.8706 3.29408C10.7807 3.2081 9.58963 3.92961 9.15382 3.92961C8.6932 3.92961 7.63739 3.32483 6.80842 3.32483C5.09558 3.35227 3.27527 4.69047 3.27527 7.41349C3.27527 8.21767 3.42274 9.04863 3.71737 9.90604C4.1102 11.0326 5.52841 13.7953 7.00814 13.7494C7.78156 13.7308 8.32815 13.1998 9.33502 13.1998C10.3111 13.1998 10.8177 13.7494 11.6804 13.7494C13.1724 13.7279 14.4554 11.2168 14.83 10.0872C12.8282 9.14485 12.9356 7.32454 12.9356 7.26602ZM11.1983 2.2257C12.0362 1.23106 11.9595 0.325374 11.935 0C11.1953 0.0429864 10.3389 0.503602 9.85053 1.07135C9.3132 1.67911 8.99708 2.43137 9.06454 3.27854C9.86607 3.33971 10.5965 2.92836 11.1983 2.2257Z" fill="white"/>
</g>
<defs>
<clipPath id="clip0">
<rect width="11.5544" height="13.75" fill="white" transform="translate(3.27527)"/>
</clipPath>
</defs>
</svg>
