<svg width="16px" height="14px" viewBox="0 0 16 14" version="1.1" xmlns="http://www.w3.org/2000/svg" xmlns:xlink="http://www.w3.org/1999/xlink">
  <g id="icon-right-arrow" fill="#786B6F">
    <path d="M9,11 L9,-1 L7,-1 L7,11 L5,11 L5,13 L7,13 L7,15 L9,15 L9,13 L11,13 L11,11 L9,11 Z M11,9 L13,9 L13,11 L11,11 L11,9 Z M13,7 L15,7 L15,9 L13,9 L13,7 Z M3,9 L5,9 L5,11 L3,11 L3,9 Z M1,7 L3,7 L3,9 L1,9 L1,7 Z" transform="translate(8.000000, 7.000000) rotate(-90.000000) translate(-8.000000, -7.000000) "></path>
  </g>
</svg>