<svg width="18" height="18" viewBox="0 0 18 18" fill="none" xmlns="http://www.w3.org/2000/svg">
<g clip-path="url(#clip0)">
<path d="M9.00017 2C5.6878 2 3 4.6878 3 8.00017C3 11.3125 5.6878 14.0003 9.00017 14.0003C12.3125 14.0003 15.0003 11.3125 15.0003 8.00017C15.0003 4.6878 12.3122 2 9.00017 2ZM11.4364 10.8284C11.3346 10.8284 11.2719 10.7971 11.1775 10.7413C9.66778 9.83151 7.91117 9.79281 6.17658 10.1485C6.08216 10.1728 5.95871 10.2115 5.88865 10.2115C5.6541 10.2115 5.5063 10.0254 5.5063 9.82918C5.5063 9.57995 5.65377 9.46151 5.83527 9.4228C7.81675 8.98474 9.84161 9.02377 11.5692 10.0567C11.7167 10.1511 11.8037 10.2359 11.8037 10.4558C11.8037 10.6756 11.6322 10.8284 11.4364 10.8284ZM12.0873 9.2413C11.9615 9.2413 11.8768 9.18559 11.7897 9.13955C10.2777 8.24439 8.0226 7.88373 6.0171 8.42823C5.90099 8.45959 5.83794 8.49128 5.72917 8.49128C5.47026 8.49128 5.25974 8.28076 5.25974 8.02185C5.25974 7.76295 5.38552 7.59113 5.63475 7.52106C6.30737 7.33222 6.99433 7.19209 8.00092 7.19209C9.57102 7.19209 11.0881 7.58145 12.2832 8.29277C12.479 8.40888 12.5564 8.55901 12.5564 8.76954C12.5541 9.03078 12.3509 9.2413 12.0873 9.2413ZM12.8374 7.39761C12.7116 7.39761 12.6342 7.36625 12.5254 7.30319C10.8028 6.27492 7.723 6.02803 5.7295 6.58454C5.64242 6.60889 5.53366 6.64759 5.41755 6.64759C5.09826 6.64759 4.8537 6.39837 4.8537 6.07674C4.8537 5.74777 5.05689 5.56126 5.27475 5.49854C6.12653 5.24931 7.07974 5.13087 8.11736 5.13087C9.88364 5.13087 11.7343 5.49854 13.0869 6.28726C13.2758 6.39603 13.3989 6.54617 13.3989 6.8341C13.3985 7.16307 13.1323 7.39761 12.8374 7.39761Z" fill="white"/>
</g>
<defs>
<clipPath id="clip0">
<rect width="12" height="12" fill="white" transform="translate(3 2)"/>
</clipPath>
</defs>
</svg>
