<svg width="14px" height="16px" viewBox="0 0 14 16" version="1.1" xmlns="http://www.w3.org/2000/svg" xmlns:xlink="http://www.w3.org/1999/xlink">
    <g id="Page-1" stroke="none" stroke-width="1" fill="none" fill-rule="evenodd">
        <g id="icon-down-arrow" fill="#786B6F">
            <path d="M8,12 L8,0 L6,0 L6,12 L4,12 L4,14 L6,14 L6,16 L8,16 L8,14 L10,14 L10,12 L8,12 Z M10,10 L12,10 L12,12 L10,12 L10,10 Z M12,8 L14,8 L14,10 L12,10 L12,8 Z M2,10 L4,10 L4,12 L2,12 L2,10 Z M0,8 L2,8 L2,10 L0,10 L0,8 Z"></path>
        </g>
    </g>
</svg>